<svg width="48" height="64" viewBox="0 0 48 64" fill="none" xmlns="http://www.w3.org/2000/svg">
<path d="M23.6368 40.9014C14.7048 40.9014 7.43134 33.6344 7.43134 24.7136C7.43134 15.7834 14.6955 8.52588 23.6368 8.52588C32.5781 8.52588 39.8423 15.7929 39.8423 24.7136C39.8423 33.6438 32.5688 40.9014 23.6368 40.9014ZM23.6368 10.4159C15.724 10.4159 9.28445 16.8324 9.28445 24.7136C9.28445 32.5949 15.724 39.0114 23.6368 39.0114C31.5496 39.0114 37.9891 32.5949 37.9891 24.7136C37.9891 16.8324 31.5496 10.4159 23.6368 10.4159Z" fill="#20201D"/>
<path d="M23.6368 48.8297C21.8208 48.8297 20.2549 47.7241 19.6434 46.0042L19.5414 45.7113C19.4117 45.3427 19.0967 45.2388 18.967 45.2104C18.8373 45.1821 18.4944 45.1348 18.2072 45.4183L17.9848 45.6451C16.6784 46.9397 14.7604 47.2516 13.1111 46.4294C11.5082 45.6262 10.5909 43.9536 10.7855 42.1581L10.8225 41.8463C10.8596 41.4777 10.6372 41.2509 10.5446 41.1659C10.4427 41.0808 10.1462 40.8918 9.75701 41.0241L9.46051 41.1281C7.70932 41.7329 5.84694 41.1753 4.72581 39.7011C3.63248 38.2742 3.53982 36.3748 4.49417 34.8534L4.66095 34.5888C4.85553 34.2675 4.75361 33.9745 4.70728 33.8611C4.65169 33.7383 4.47564 33.4548 4.06796 33.4075L3.75293 33.3697C1.92761 33.1618 0.491452 31.8578 0.102299 30.0623C-0.286854 28.2857 0.454389 26.5186 1.98321 25.5547L2.25191 25.3846C2.58547 25.1767 2.62253 24.8554 2.62253 24.7326C2.62253 24.6097 2.58547 24.2884 2.26117 24.0805L1.99247 23.9104C0.463655 22.9465 -0.277588 21.17 0.111565 19.4028C0.509984 17.6074 1.94614 16.3033 3.76219 16.0954L4.07722 16.0576C4.48491 16.0103 4.66095 15.7269 4.71655 15.604C4.77214 15.4906 4.87406 15.1977 4.67022 14.8764L4.50344 14.6118C3.54909 13.0903 3.64174 11.1815 4.73508 9.76399C5.86548 8.28981 7.72785 7.73227 9.47904 8.33706L9.77554 8.44101C10.1647 8.5733 10.4519 8.38431 10.5631 8.29926C10.665 8.22366 10.8874 7.98742 10.8411 7.61887L10.804 7.30702C10.6094 5.51155 11.5175 3.83893 13.1297 3.03569C14.7789 2.21355 16.6876 2.51594 18.0034 3.82002L18.2257 4.03737C18.513 4.32087 18.8558 4.28307 18.9855 4.24527C19.1152 4.21692 19.4303 4.10353 19.56 3.74443L19.6619 3.45149C20.2734 1.73161 21.8393 0.625977 23.6553 0.625977C25.4714 0.625977 27.0373 1.73161 27.6488 3.45149L27.7507 3.74443C27.8804 4.11298 28.1955 4.21693 28.3252 4.25473C28.4549 4.28307 28.7977 4.33032 29.085 4.04682L29.3073 3.82002C30.6138 2.52539 32.5317 2.21355 34.181 3.03569C35.784 3.83893 36.7012 5.51155 36.5067 7.30702L36.4696 7.61887C36.4325 7.98742 36.6549 8.21421 36.7476 8.29926C36.8495 8.38431 37.146 8.5733 37.5351 8.44101L37.8316 8.33706C39.5736 7.73227 41.4359 8.28981 42.5663 9.76399C43.6597 11.1909 43.7523 13.0903 42.798 14.6118L42.6312 14.8764C42.4366 15.1977 42.5293 15.4906 42.5849 15.604C42.6405 15.7269 42.8165 16.0103 43.2242 16.0576L43.5392 16.0954C45.3645 16.3033 46.8007 17.6074 47.1899 19.4028C47.579 21.1794 46.8378 22.9465 45.309 23.9104L45.0402 24.0805C44.7067 24.2884 44.6696 24.6097 44.6696 24.7326C44.6696 24.8554 44.7067 25.1767 45.0402 25.3846L45.309 25.5547C46.8378 26.5186 47.579 28.2952 47.1899 30.0623C46.7914 31.8578 45.3645 33.1618 43.5392 33.3697L43.2242 33.4075C42.8165 33.4548 42.6405 33.7383 42.5849 33.8611C42.5293 33.9745 42.4274 34.2675 42.6312 34.5888L42.798 34.8534C43.7523 36.3748 43.6597 38.2837 42.5663 39.7011C41.4359 41.1753 39.5736 41.7329 37.8224 41.1281L37.5259 41.0241C37.1367 40.8918 36.8402 41.0808 36.7383 41.1659C36.6364 41.2415 36.414 41.4777 36.4603 41.8463L36.4974 42.1581C36.692 43.9536 35.784 45.6262 34.1718 46.4294C32.5225 47.2516 30.6045 46.9492 29.2981 45.6451L29.0757 45.4278C28.7885 45.1443 28.4456 45.1821 28.3159 45.2199C28.1862 45.2482 27.8712 45.3616 27.7415 45.7207L27.6395 46.0136C27.028 47.7146 25.4529 48.8297 23.6368 48.8297ZM18.7724 43.2826C18.9762 43.2826 19.1801 43.3015 19.3839 43.3582C20.2641 43.5661 20.9776 44.1993 21.2834 45.0592L21.3853 45.3522C21.8022 46.5145 22.8214 46.9303 23.6368 46.9303C24.4522 46.9303 25.4714 46.5145 25.8883 45.3522L25.9903 45.0592C26.296 44.1993 27.0002 43.5661 27.8897 43.3582C28.7792 43.1503 29.7058 43.4055 30.3543 44.0575L30.5767 44.2749C31.4755 45.1726 32.5966 45.0876 33.3379 44.7096C34.0513 44.3505 34.7647 43.5472 34.635 42.3471L34.598 42.0353C34.496 41.1281 34.8574 40.2492 35.5616 39.6728C36.275 39.0869 37.2294 38.9168 38.1003 39.2192L38.3968 39.3232C39.6014 39.7389 40.5742 39.1814 41.0839 38.5199C41.5657 37.8962 41.8529 36.8662 41.2136 35.8456L41.0468 35.581C40.565 34.8061 40.5094 33.8517 40.8893 33.0201C41.2877 32.1791 42.066 31.6121 42.9926 31.5081L43.3076 31.4703C44.5584 31.3286 45.1885 30.4214 45.3645 29.6276C45.5313 28.8527 45.346 27.7849 44.3175 27.1328L44.0488 26.9627C43.2705 26.4713 42.8073 25.6208 42.8073 24.7042C42.8073 23.7781 43.2705 22.9371 44.0488 22.4457L44.3175 22.2756C45.3553 21.6236 45.5406 20.5652 45.3645 19.7808C45.1885 18.9871 44.5584 18.0799 43.3076 17.9381L42.9926 17.9003C42.0753 17.7964 41.2877 17.2294 40.8893 16.3883C40.5001 15.5567 40.5557 14.6023 41.0468 13.8274L41.2136 13.5628C41.8529 12.5423 41.5657 11.5122 41.0839 10.898C40.5742 10.2365 39.6014 9.67894 38.3968 10.0947L38.1003 10.1987C37.2294 10.5011 36.275 10.331 35.5616 9.74509C34.8574 9.16865 34.5053 8.28981 34.598 7.38263L34.635 7.07078C34.7647 5.87064 34.0513 5.06741 33.3379 4.70831C32.5873 4.33032 31.4755 4.25472 30.5767 5.143L30.3543 5.3698C29.7058 6.01239 28.7792 6.27699 27.8897 6.06909C27.0095 5.8612 26.296 5.22806 25.9903 4.36812L25.8883 4.07518C25.4714 2.91284 24.4522 2.49704 23.6368 2.49704C22.8214 2.49704 21.8022 2.91284 21.3853 4.07518L21.2834 4.36812C20.9776 5.22806 20.2734 5.8612 19.3839 6.06909C18.4944 6.27699 17.5679 6.02184 16.91 5.3698L16.6876 5.15246C15.7889 4.26418 14.6678 4.33977 13.9265 4.70831C13.2131 5.06741 12.4996 5.87064 12.6293 7.07078L12.6664 7.38263C12.7683 8.28981 12.407 9.16865 11.7028 9.74509C10.9893 10.331 10.035 10.5011 9.16401 10.1987L8.86752 10.0947C7.66299 9.67894 6.69011 10.2365 6.18051 10.898C5.6987 11.5217 5.41146 12.5517 6.05079 13.5628L6.21757 13.8274C6.69938 14.6023 6.75497 15.5567 6.37508 16.3883C5.97666 17.2294 5.19836 17.7964 4.2718 17.9003L3.95677 17.9381C2.70592 18.0799 2.07586 18.9871 1.89982 19.7808C1.73304 20.5557 1.91835 21.6236 2.94683 22.2756L3.21553 22.4457C3.99383 22.9371 4.45711 23.7781 4.45711 24.7042C4.45711 25.6303 3.99383 26.4713 3.21553 26.9627L2.94683 27.1328C1.90908 27.7849 1.72377 28.8433 1.89982 29.6276C2.07586 30.4214 2.70592 31.3286 3.95677 31.4703L4.2718 31.5081C5.18909 31.6121 5.97666 32.1791 6.37508 33.0201C6.76424 33.8517 6.70864 34.8061 6.21757 35.581L6.05079 35.8456C5.41146 36.8662 5.6987 37.8962 6.18051 38.5199C6.69011 39.1814 7.66299 39.7389 8.86752 39.3232L9.16401 39.2192C10.0442 38.9168 10.9893 39.0869 11.7028 39.6728C12.407 40.2492 12.7591 41.1281 12.6664 42.0353L12.6293 42.3471C12.4996 43.5472 13.2131 44.3505 13.9265 44.7096C14.6678 45.0781 15.7889 45.1632 16.6876 44.2749L16.91 44.0481C17.4196 43.5567 18.0867 43.2826 18.7724 43.2826Z" fill="#20201D"/>
<path d="M18.6148 63.175C18.4017 63.175 18.1793 63.0994 18.0125 62.9482L12.8146 58.4217L5.98586 58.6863C5.69863 58.7052 5.3836 58.554 5.20756 58.2989C5.02224 58.0437 4.97592 57.7225 5.07784 57.4201L10.7298 41.1379C10.8966 40.6465 11.434 40.3913 11.9158 40.5614C12.3976 40.7315 12.6478 41.2796 12.481 41.771L7.28304 56.7397L13.1111 56.5129C13.3334 56.5034 13.5743 56.5885 13.7504 56.7397L18.1979 60.6047L22.5805 47.7339C22.7472 47.2425 23.2754 46.9779 23.7572 47.148C24.239 47.3181 24.4984 47.8568 24.3317 48.3482L19.5043 62.523C19.4024 62.8159 19.1707 63.0428 18.8742 63.1278C18.7816 63.1561 18.6982 63.175 18.6148 63.175Z" fill="#20201D"/>
<path d="M28.2696 60.5758C28.1862 60.5758 28.1028 60.5663 28.0287 60.538C27.7322 60.4529 27.5005 60.2262 27.3986 59.9332L23.5442 48.4137C23.3774 47.9224 23.6368 47.3837 24.1186 47.2136C24.6004 47.0435 25.1286 47.3081 25.2953 47.7995L28.7051 58.0054L33.1433 54.1499C33.3193 53.9987 33.5509 53.9136 33.7826 53.9231L39.6106 54.1499L35.2002 41.5248C35.0242 41.0334 35.2836 40.4947 35.7654 40.3152C36.2472 40.1356 36.7754 40.4002 36.9514 40.8916L41.8251 54.8302C41.927 55.1232 41.8807 55.4539 41.6954 55.7091C41.5101 55.9642 41.2228 56.106 40.9171 56.0965L34.0883 55.8319L28.8904 60.3585C28.7051 60.4908 28.492 60.5758 28.2696 60.5758Z" fill="#20201D"/>
<path d="M19.041 34.3337C18.448 34.3337 17.855 34.1447 17.3454 33.7667C16.4466 33.1053 16.0111 31.9996 16.1964 30.8845L16.808 27.2558L14.2229 24.6854C13.426 23.901 13.1481 22.7387 13.4909 21.6614C13.8337 20.5841 14.7232 19.8187 15.8258 19.658L19.3931 19.1288L20.9867 15.8308C21.4778 14.8197 22.4692 14.1865 23.5811 14.1865C24.693 14.1865 25.6844 14.8197 26.1754 15.8308L27.7691 19.1288L31.3364 19.658C32.4297 19.8187 33.3285 20.5936 33.6713 21.6614C34.0141 22.7387 33.7361 23.8916 32.9393 24.6854L30.3542 27.2558L30.9657 30.8845C31.151 31.9996 30.7156 33.1053 29.8168 33.7667C28.918 34.4282 27.7506 34.5133 26.7684 33.9935L23.5718 32.2831L20.3752 33.9935C19.9583 34.2203 19.495 34.3337 19.041 34.3337ZM23.5811 16.086C23.1734 16.086 22.8306 16.3033 22.6545 16.6718L20.8385 20.414C20.6995 20.6975 20.4401 20.8865 20.1436 20.9338L16.0945 21.5386C15.6961 21.5953 15.3811 21.8693 15.2606 22.2568C15.1402 22.6442 15.2328 23.0505 15.52 23.3435L18.448 26.2541C18.6703 26.4714 18.763 26.7833 18.7167 27.0857L18.0218 31.1964C17.9569 31.6027 18.1051 31.9902 18.4294 32.2264C18.7537 32.4721 19.1614 32.5005 19.5228 32.302L23.1456 30.3553C23.4143 30.2136 23.7386 30.2136 24.0073 30.3553L27.6301 32.302C27.9915 32.491 28.3992 32.4627 28.7235 32.2264C29.0478 31.9807 29.2053 31.5933 29.1312 31.1964L28.4362 27.0857C28.3806 26.7833 28.4826 26.462 28.7049 26.2446L31.6329 23.334C31.9201 23.0505 32.022 22.6442 31.8923 22.2473C31.7718 21.8598 31.4568 21.5858 31.0584 21.5291L27.0093 20.9243C26.7036 20.8771 26.4441 20.6881 26.3144 20.4046L24.4984 16.6624C24.3316 16.3033 23.9795 16.086 23.5811 16.086Z" fill="#529BEF"/>
</svg>
