<svg width="68" height="62" viewBox="0 0 68 62" fill="none" xmlns="http://www.w3.org/2000/svg">
<path d="M64.3267 47.9037H39.8213C39.2597 47.9037 38.8002 47.4351 38.8002 46.8623C38.8002 46.2896 39.2597 45.8209 39.8213 45.8209H64.3267C64.8882 45.8209 65.3477 45.3523 65.3477 44.7796V3.12461C65.3477 2.55185 64.8882 2.08324 64.3267 2.08324H3.06317C2.50159 2.08324 2.04212 2.55185 2.04212 3.12461V44.7796C2.04212 45.3523 2.50159 45.8209 3.06317 45.8209H27.5686C28.1301 45.8209 28.5896 46.2896 28.5896 46.8623C28.5896 47.4351 28.1301 47.9037 27.5686 47.9037H3.06317C1.37843 47.9037 0 46.4978 0 44.7796V3.12461C0 1.40634 1.37843 0.000488281 3.06317 0.000488281H64.3267C66.0114 0.000488281 67.3898 1.40634 67.3898 3.12461V44.7796C67.3898 46.4978 66.0114 47.9037 64.3267 47.9037Z" fill="#20201D"/>
<path d="M33.6949 54.1516C29.7536 54.1516 26.5475 50.8818 26.5475 46.8622C26.5475 42.8426 29.7536 39.5728 33.6949 39.5728C37.6362 39.5728 40.8423 42.8426 40.8423 46.8622C40.8423 50.8818 37.6362 54.1516 33.6949 54.1516ZM33.6949 41.6554C30.8768 41.6554 28.5896 43.9881 28.5896 46.8622C28.5896 49.7363 30.8768 52.0689 33.6949 52.0689C36.513 52.0689 38.8002 49.7363 38.8002 46.8622C38.8002 43.9881 36.513 41.6554 33.6949 41.6554Z" fill="#529BEF"/>
<path d="M37.7793 61.4415C37.6261 61.4415 37.4628 61.3999 37.3198 61.327L33.6951 59.4734L30.0703 61.327C29.7538 61.4936 29.376 61.4728 29.0799 61.2853C28.7838 61.0979 28.6 60.7646 28.6 60.4002V52.0692C28.6 51.4964 29.0595 51.0278 29.621 51.0278C30.1826 51.0278 30.6421 51.4964 30.6421 52.0692V58.7131L33.2458 57.3802C33.5317 57.2344 33.8686 57.2344 34.1545 57.3802L36.7582 58.7131V52.0692C36.7582 51.4964 37.2177 51.0278 37.7793 51.0278C38.3409 51.0278 38.8004 51.4964 38.8004 52.0692V60.4002C38.8004 60.7646 38.6166 61.0979 38.3205 61.2853C38.1571 61.3895 37.9631 61.4415 37.7793 61.4415Z" fill="#529BEF"/>
<path d="M61.2637 42.6969H42.8846C42.323 42.6969 41.8636 42.2283 41.8636 41.6555C41.8636 41.0828 42.323 40.6142 42.8846 40.6142H60.2426V7.29026H7.14759V40.6142H24.5056C25.0672 40.6142 25.5266 41.0828 25.5266 41.6555C25.5266 42.2283 25.0672 42.6969 24.5056 42.6969H6.12653C5.56494 42.6969 5.10547 42.2283 5.10547 41.6555V6.24889C5.10547 5.67614 5.56494 5.20752 6.12653 5.20752H61.2637C61.8253 5.20752 62.2847 5.67614 62.2847 6.24889V41.6555C62.2847 42.2283 61.8253 42.6969 61.2637 42.6969Z" fill="#20201D"/>
<path d="M55.1373 17.704H12.2528C11.6912 17.704 11.2318 17.2353 11.2318 16.6625C11.2318 16.0897 11.6912 15.6211 12.2528 15.6211H55.1373C55.6988 15.6211 56.1583 16.0897 56.1583 16.6625C56.1583 17.2353 55.6988 17.704 55.1373 17.704Z" fill="#20201D"/>
<path d="M55.1373 26.0348H12.2528C11.6912 26.0348 11.2318 25.5662 11.2318 24.9935C11.2318 24.4207 11.6912 23.9521 12.2528 23.9521H55.1373C55.6988 23.9521 56.1583 24.4207 56.1583 24.9935C56.1583 25.5662 55.6988 26.0348 55.1373 26.0348Z" fill="#20201D"/>
<path d="M55.1372 35.4073H42.8845C42.3229 35.4073 41.8635 34.9388 41.8635 34.366C41.8635 33.7933 42.3229 33.3247 42.8845 33.3247H55.1372C55.6988 33.3247 56.1583 33.7933 56.1583 34.366C56.1583 34.9388 55.6988 35.4073 55.1372 35.4073Z" fill="#20201D"/>
</svg>
