<svg width="75" height="69" viewBox="0 0 75 69" fill="none" xmlns="http://www.w3.org/2000/svg">
<path d="M41.2514 58.3047C40.8939 58.3047 40.5526 58.0561 40.4714 57.6749C39.8051 54.9237 39.6264 52.4875 39.9352 50.4158C40.0002 49.9684 40.4227 49.6535 40.8614 49.7198C41.3001 49.786 41.6088 50.217 41.5438 50.6644C41.2676 52.5206 41.4301 54.7415 42.0475 57.2772C42.1613 57.7246 41.885 58.1721 41.4626 58.2881C41.3813 58.2881 41.3164 58.3047 41.2514 58.3047Z" fill="#20201D"/>
<path d="M67.2011 55.0398C67.0386 55.0398 66.8599 54.9901 66.7136 54.8741C65.4625 53.9295 64.8288 53.2169 64.7963 53.1837C64.5038 52.8357 64.5363 52.322 64.8612 52.0071C65.2025 51.7088 65.7062 51.7254 66.015 52.0734C66.015 52.0734 66.5837 52.7197 67.6724 53.5317C68.0299 53.7969 68.1111 54.3272 67.8511 54.6918C67.7048 54.9238 67.4611 55.0398 67.2011 55.0398Z" fill="#20201D"/>
<path d="M46.7434 68.563C45.8172 68.563 44.9073 68.1155 44.3386 67.2703L40.4712 61.5198C40.0487 60.89 39.805 60.0283 39.8213 59.1831C39.8375 58.1722 40.2112 57.3436 40.8775 56.8961L41.2024 56.6641C42.5511 55.7195 44.6473 56.5647 45.5735 57.907L49.4733 63.6742C49.912 64.3205 50.0745 65.116 49.9283 65.8949C49.782 66.6738 49.3595 67.3532 48.7096 67.8007L48.3846 68.0327C47.8971 68.3973 47.3121 68.563 46.7434 68.563ZM42.1287 58.023L41.8037 58.255C41.5924 58.4042 41.4624 58.7688 41.4462 59.2162C41.4299 59.7134 41.5762 60.2437 41.8037 60.5917L45.6709 66.3423C46.0772 66.9389 46.8896 67.088 47.4746 66.6903L47.7996 66.4583C48.0758 66.2594 48.2709 65.9611 48.3359 65.6131C48.4009 65.2651 48.3196 64.9171 48.1408 64.6188L44.2411 58.8517C43.7698 58.139 42.5999 57.6916 42.1287 58.023Z" fill="#20201D"/>
<path d="M62.7164 65.7455C62.6676 65.7455 62.6351 65.7455 62.5863 65.7455L62.0989 65.7289C60.2627 65.6626 58.8166 64.0717 58.8816 62.2156L59.1578 53.7305C59.1903 52.8521 59.564 51.891 60.1815 51.1452C60.8802 50.3 61.7414 49.8525 62.6676 49.8525L63.1551 49.8691C63.9188 49.9023 64.6662 50.2669 65.2512 50.9132C65.9662 51.6921 66.3724 52.8024 66.3399 53.8133L66.0312 62.4641C65.9987 63.3756 65.625 64.2042 64.975 64.834C64.3575 65.4306 63.5451 65.7455 62.7164 65.7455ZM62.5863 51.4932C62.2126 51.4932 61.7901 51.7418 61.4489 52.1892C61.0752 52.6533 60.8314 53.2664 60.7989 53.7802L60.5227 62.2653C60.4902 63.2265 61.2214 64.0385 62.1639 64.0717L62.6513 64.0882C63.0901 64.1214 63.545 63.9391 63.87 63.6242C64.2112 63.3093 64.4063 62.8785 64.4226 62.4144L64.7313 53.7636C64.7475 53.1836 64.4875 52.5041 64.065 52.0401C63.7726 51.7086 63.4313 51.5263 63.0901 51.5263L62.6026 51.5098C62.6026 51.4932 62.5863 51.4932 62.5863 51.4932Z" fill="#20201D"/>
<path d="M56.8341 66.7727C55.3717 66.7727 54.0718 65.7121 53.7793 64.204L52.4143 56.5476C52.2681 55.7521 52.3818 54.8407 52.7555 54.0452C53.1943 53.1337 53.893 52.5205 54.7217 52.3714L55.1605 52.2885C56.8666 51.9571 58.6215 53.6972 58.9465 55.371L60.3277 62.9279C60.4902 63.7566 60.3115 64.6017 59.8402 65.2978C59.369 65.9938 58.6703 66.4744 57.8578 66.6236L57.4354 66.7064C57.2241 66.7561 57.0291 66.7727 56.8341 66.7727ZM55.4692 53.9126L55.0467 53.9955C54.608 54.0783 54.3317 54.5589 54.2342 54.7578C54.023 55.2218 53.9418 55.7853 54.023 56.2327L55.388 63.8891C55.5342 64.7012 56.3141 65.2315 57.1266 65.0823L57.5491 64.9995C57.9391 64.9332 58.2641 64.7012 58.4916 64.3697C58.7191 64.0383 58.8003 63.624 58.719 63.2428L57.3379 55.6858C57.1754 54.7246 56.1517 53.78 55.4692 53.9126Z" fill="#20201D"/>
<path d="M51.862 68.3804C50.6108 68.3804 49.4246 67.6015 48.9534 66.342L46.1585 58.8181C45.5248 57.1277 46.321 55.1225 47.8647 54.5259L48.2709 54.3601C49.8958 53.7304 51.862 55.1059 52.447 56.7134L55.1606 63.9224C55.7781 65.5631 54.9656 67.386 53.357 68.0158L52.9507 68.1815C52.5932 68.3141 52.2195 68.3804 51.862 68.3804ZM48.8559 55.9179L48.4496 56.0837C47.9947 56.266 47.7835 56.6968 47.686 56.9288C47.5397 57.3597 47.5235 57.8403 47.6697 58.2381L50.4645 65.7619C50.757 66.5408 51.6183 66.9386 52.382 66.6403L52.7882 66.4745C53.5519 66.1762 53.9419 65.2979 53.6494 64.519L50.9358 57.31C50.6433 56.4814 49.5546 55.6362 48.8559 55.9179Z" fill="#20201D"/>
<path d="M70.1749 58.5361C69.8174 58.5361 69.4599 58.4533 69.1511 58.271C68.3387 57.8235 67.51 56.8623 67.4125 56.7463C65.7064 54.4427 67.12 51.7249 68.1112 50.6145C68.4037 50.2665 68.9237 50.2499 69.2487 50.5482C69.5899 50.8465 69.6061 51.3768 69.3136 51.7249C69.2324 51.8077 67.38 53.9787 68.6637 55.7188C68.8262 55.9177 69.4274 56.564 69.8986 56.8126C70.2399 57.0115 70.8736 56.7463 71.4099 56.1663C72.3686 55.1553 72.986 53.3324 72.076 51.6751L71.9623 51.4597C71.7348 51.0288 71.6536 50.8962 70.1749 49.1893C69.5412 48.4601 68.6799 47.4823 67.5425 46.1565C67.12 45.6593 64.5201 43.1072 64.0652 42.6929C63.7239 42.3946 63.6914 41.8642 63.9839 41.5162C64.2764 41.1682 64.7964 41.1351 65.1376 41.4334C65.6414 41.8808 68.29 44.4827 68.7774 45.0462C69.9149 46.372 70.7599 47.3497 71.3936 48.0789C72.9373 49.8356 73.0835 50.0676 73.3922 50.6477L73.506 50.8465C74.8384 53.2329 73.961 55.868 72.596 57.3098C71.8323 58.1218 70.9711 58.5361 70.1749 58.5361Z" fill="#20201D"/>
<path d="M32.8993 58.3049C32.8343 58.3049 32.7693 58.3049 32.7043 58.2884C32.2655 58.1724 32.0055 57.7249 32.1193 57.2774C32.7205 54.8412 32.8993 52.6867 32.6556 50.8803C32.5906 50.4328 32.9155 50.0019 33.3542 49.9522C33.8092 49.8693 34.1992 50.2174 34.2642 50.6648C34.5242 52.6702 34.3454 55.0401 33.6955 57.6752C33.598 58.0563 33.273 58.3049 32.8993 58.3049Z" fill="#20201D"/>
<path d="M6.94916 55.0402C6.70542 55.0402 6.46168 54.9241 6.29919 54.7087C6.03921 54.3441 6.10422 53.8137 6.47795 53.5485C7.56664 52.7198 8.13531 52.09 8.13531 52.09C8.42779 51.742 8.94778 51.7254 9.28901 52.0237C9.63024 52.322 9.64647 52.8524 9.35399 53.2005C9.32149 53.2336 8.68781 53.9629 7.43663 54.891C7.29039 54.9904 7.1279 55.0402 6.94916 55.0402Z" fill="#20201D"/>
<path d="M27.407 68.5631C26.8383 68.5631 26.2695 68.3974 25.7658 68.0494L25.4408 67.8174C24.8071 67.3699 24.3684 66.6904 24.2221 65.9115C24.0759 65.1326 24.2384 64.3371 24.6772 63.6908L28.577 57.907C29.4869 56.5647 31.5993 55.7195 32.948 56.6641L33.273 56.8961C33.9392 57.3602 34.3129 58.1722 34.3292 59.1831C34.3454 60.0283 34.1017 60.9067 33.6792 61.5198L29.8119 67.2705C29.2595 68.1156 28.3495 68.5631 27.407 68.5631ZM31.6155 57.907C31.0631 57.907 30.2994 58.3048 29.9256 58.8351L26.0258 64.6189C25.8308 64.9006 25.7659 65.2486 25.8309 65.5966C25.8959 65.9447 26.0908 66.243 26.3671 66.4418L26.692 66.6739C27.277 67.0882 28.0895 66.9224 28.4957 66.3258L32.363 60.5752C32.5905 60.2272 32.7368 59.6969 32.7205 59.1997C32.7205 58.7522 32.5743 58.3876 32.363 58.2385L32.038 58.0065C31.9243 57.9402 31.778 57.907 31.6155 57.907Z" fill="#20201D"/>
<path d="M11.4503 65.7454C10.6053 65.7454 9.80906 65.4305 9.19159 64.8339C8.54162 64.2207 8.16789 63.3755 8.13539 62.4641L7.82667 53.8133C7.79417 52.9184 8.10292 51.9904 8.6554 51.228C9.27287 50.3994 10.1341 49.9023 11.0278 49.8691L11.5153 49.8525C12.3765 49.8525 13.3026 50.2834 14.0014 51.1452C14.6026 51.8909 14.9926 52.8521 15.0088 53.7305L15.285 62.2155C15.3175 63.1104 15.0088 63.9887 14.3913 64.6516C13.7739 65.3145 12.9614 65.6957 12.0677 65.7454L11.5802 65.762C11.5315 65.7454 11.499 65.7454 11.4503 65.7454ZM11.5802 51.4932C11.564 51.4932 11.564 51.4932 11.5477 51.4932L11.0602 51.5098C10.6703 51.5263 10.264 51.7749 9.93907 52.2224C9.59783 52.6698 9.41908 53.2499 9.43533 53.747L9.74412 62.3978C9.76037 62.8618 9.95535 63.2927 10.2966 63.6076C10.6378 63.9224 11.0603 64.1213 11.5153 64.0716L12.0027 64.055C12.4577 64.0384 12.8802 63.8396 13.1889 63.4916C13.4976 63.1435 13.6602 62.7127 13.6439 62.2486L13.3677 53.7636C13.3514 53.2499 13.1077 52.6533 12.7177 52.1727C12.3765 51.7418 11.954 51.4932 11.5802 51.4932Z" fill="#20201D"/>
<path d="M17.3162 66.7732C17.1212 66.7732 16.9262 66.7566 16.7313 66.7235L16.2925 66.6406C15.48 66.4749 14.7813 66.0109 14.3101 65.2983C13.8388 64.6022 13.6763 63.757 13.8226 62.9284L15.2038 55.3715C15.5125 53.6977 17.2675 51.9575 18.9899 52.289L19.4285 52.3719C20.2573 52.5376 20.956 53.1342 21.3947 54.0457C21.7684 54.8246 21.8985 55.736 21.736 56.5481L20.371 64.1879C20.0948 65.7126 18.7786 66.7732 17.3162 66.7732ZM18.5674 53.8965C17.8849 53.8965 16.9912 54.7914 16.8125 55.6697L15.4313 63.2267C15.3501 63.6245 15.4313 64.0222 15.6588 64.3702C15.8863 64.7017 16.2112 64.9337 16.6012 65L17.04 65.0828C17.8362 65.2485 18.6162 64.7017 18.7624 63.8896L20.1273 56.2498C20.2086 55.7858 20.1273 55.2223 19.916 54.7748C19.8185 54.576 19.5423 54.0954 19.1036 54.0125L18.6649 53.9297C18.6486 53.8965 18.6161 53.8965 18.5674 53.8965Z" fill="#20201D"/>
<path d="M22.3048 68.3804C21.9311 68.3804 21.5574 68.3141 21.1999 68.1649L20.7936 67.9992C19.2012 67.3694 18.3887 65.5465 18.99 63.9058L21.7035 56.6968C22.3048 55.0893 24.2547 53.7138 25.8796 54.3435L26.2859 54.5093C27.8295 55.1059 28.6257 57.1111 27.992 58.8015L25.1971 66.3254C24.9046 67.1209 24.3197 67.734 23.5722 68.0821C23.166 68.2809 22.7435 68.3804 22.3048 68.3804ZM25.0185 55.8516C24.336 55.8516 23.491 56.5808 23.2148 57.2934L20.5174 64.519C20.2249 65.2979 20.6148 66.1762 21.3786 66.4745L21.7848 66.6403C22.1585 66.7728 22.5485 66.7728 22.9222 66.6071C23.2797 66.4414 23.556 66.1431 23.7022 65.7619L26.4971 58.238C26.8058 57.4094 26.4321 56.3488 25.7334 56.0836L25.3272 55.9179C25.2134 55.8682 25.1159 55.8516 25.0185 55.8516Z" fill="#20201D"/>
<path d="M3.99186 58.5364C3.19565 58.5364 2.33446 58.1221 1.57074 57.3266C0.205809 55.9014 -0.671664 53.2663 0.660771 50.8633L0.774547 50.6645C1.08328 50.0845 1.22949 49.8524 2.77317 48.0958C3.40689 47.3666 4.25186 46.3888 5.38931 45.063C5.86053 44.5161 8.49294 41.7154 8.99666 41.2514C9.33789 40.9531 9.84164 40.9862 10.1504 41.3176C10.4429 41.6657 10.4104 42.1794 10.0691 42.4943C9.64664 42.8755 7.07922 45.5933 6.608 46.1402C5.47055 47.4826 4.62564 48.4604 3.97567 49.1895C2.48075 50.8799 2.41575 51.0291 2.18826 51.46L2.07448 51.6754C1.16453 53.3161 1.78201 55.1556 2.74072 56.1665C3.27694 56.73 3.91063 56.9951 4.25186 56.8128C4.72309 56.5643 5.32436 55.9014 5.51935 55.6859C6.78679 53.979 4.86936 51.7583 4.85311 51.7417C4.54438 51.3937 4.57686 50.8799 4.91809 50.5651C5.25933 50.2668 5.76307 50.2833 6.0718 50.6313C7.06301 51.7417 8.49294 54.4596 6.80302 56.73C6.68927 56.8791 5.86052 57.8403 5.04806 58.2878C4.69057 58.4535 4.34934 58.5364 3.99186 58.5364Z" fill="#20201D"/>
<path d="M37.0752 8.70312C36.6202 8.70312 36.2627 8.33853 36.2627 7.87449V1.70949C36.2627 1.24546 36.6202 0.880859 37.0752 0.880859C37.5301 0.880859 37.8876 1.24546 37.8876 1.70949V7.87449C37.8876 8.32196 37.5139 8.70312 37.0752 8.70312Z" fill="#529BEF"/>
<path d="M55.9568 16.1277C55.7456 16.1277 55.5343 16.0448 55.3881 15.8791C55.0631 15.5476 55.0631 15.0339 55.3881 14.7024L59.6616 10.3438C59.9866 10.0124 60.4903 10.0124 60.8153 10.3438C61.1403 10.6753 61.1403 11.189 60.8153 11.5205L56.5418 15.8791C56.363 16.0448 56.168 16.1277 55.9568 16.1277Z" fill="#529BEF"/>
<path d="M18.4213 16.3762C18.21 16.3762 17.9988 16.2934 17.8525 16.1276L13.5789 11.769C13.254 11.4375 13.254 10.9238 13.5789 10.5923C13.9039 10.2609 14.4077 10.2609 14.7327 10.5923L19.0063 14.951C19.3312 15.2824 19.3312 15.7962 19.0063 16.1276C18.8438 16.2934 18.6325 16.3762 18.4213 16.3762Z" fill="#529BEF"/>
<path d="M20.4363 45.3615C14.5541 45.3615 8.59064 43.7705 8.59064 40.7211V35.9483C8.59064 35.4842 8.94812 35.1196 9.4031 35.1196C9.85808 35.1196 10.2156 35.4842 10.2156 35.9483V40.7211C10.2156 41.9475 14.1966 43.7042 20.4363 43.7042C22.6462 43.7042 24.3199 43.555 25.8311 43.2402C26.2698 43.1242 26.6922 43.439 26.7897 43.8865C26.8872 44.334 26.5948 44.7814 26.156 44.8643C24.5311 45.1957 22.7762 45.3615 20.4363 45.3615Z" fill="#529BEF"/>
<path d="M20.4362 35.9323C14.554 35.9323 8.59053 34.3413 8.59053 31.2919C8.59053 27.2151 19.2338 25.823 26.0422 27.1654C26.4809 27.2482 26.7734 27.6957 26.6922 28.1432C26.6109 28.5906 26.1884 28.8889 25.7335 28.8061C24.1248 28.4912 22.2886 28.3255 20.4362 28.3255C14.1965 28.3255 10.2155 30.0987 10.2155 31.3085C10.2155 32.5183 14.1965 34.2916 20.4362 34.2916C22.3536 34.2916 24.2222 34.1093 25.8472 33.7944C26.2859 33.695 26.7084 33.9933 26.8059 34.4407C26.8872 34.8882 26.6109 35.3191 26.1722 35.4185C24.4335 35.75 22.4674 35.9323 20.4362 35.9323Z" fill="#529BEF"/>
<path d="M20.4363 40.7047C14.5541 40.7047 8.59064 39.1138 8.59064 36.0644V31.2915C8.59064 30.8275 8.94812 30.4629 9.4031 30.4629C9.85808 30.4629 10.2156 30.8275 10.2156 31.2915V36.0644C10.2156 37.2908 14.1966 39.0475 20.4363 39.0475C22.305 39.0475 24.1249 38.8817 25.7336 38.5669C26.1723 38.484 26.5947 38.7657 26.6922 39.2298C26.7735 39.6772 26.4972 40.1081 26.0423 40.2075C24.3524 40.5224 22.4024 40.7047 20.4363 40.7047Z" fill="#529BEF"/>
<path d="M53.6009 45.3615C51.5698 45.3615 49.7011 45.1791 47.9137 44.8145C47.475 44.7151 47.1825 44.2842 47.28 43.8368C47.3775 43.3893 47.8 43.091 48.2387 43.1905C49.9124 43.5385 51.6673 43.7042 53.6009 43.7042C59.8406 43.7042 63.8217 41.9309 63.8217 40.7211V35.9483C63.8217 35.4842 64.1792 35.1196 64.6341 35.1196C65.0891 35.1196 65.4466 35.4842 65.4466 35.9483V40.7211C65.4466 43.7539 59.4994 45.3615 53.6009 45.3615Z" fill="#529BEF"/>
<path d="M53.6015 35.9319C51.6516 35.9319 49.7342 35.7662 48.0443 35.4347C47.6056 35.3519 47.3131 34.921 47.3943 34.4735C47.4756 34.0261 47.8981 33.7278 48.3368 33.8106C49.9292 34.1255 51.7329 34.2912 53.5853 34.2912C59.825 34.2912 63.806 32.518 63.806 31.3082C63.806 30.0984 59.825 28.3252 53.5853 28.3252C51.6029 28.3252 49.848 28.4909 48.2393 28.8224C47.8006 28.9218 47.3781 28.6235 47.2806 28.176C47.1994 27.7286 47.4756 27.2977 47.9143 27.1983C49.6367 26.8503 51.4891 26.668 53.569 26.668C59.4512 26.668 65.4147 28.2589 65.4147 31.3082C65.4472 34.3409 59.5 35.9319 53.6015 35.9319Z" fill="#529BEF"/>
<path d="M53.6007 40.7048C51.6508 40.7048 49.7171 40.5225 48.0272 40.1911C47.5885 40.1082 47.296 39.6773 47.3773 39.2133C47.4585 38.7658 47.8973 38.4675 48.336 38.5504C49.9284 38.8653 51.7646 39.031 53.617 39.031C59.8567 39.031 63.8377 37.2577 63.8377 36.0479V31.2749C63.8377 30.8109 64.1952 30.4463 64.6502 30.4463C65.1052 30.4463 65.4626 30.8109 65.4626 31.2749V36.0479C65.4464 39.1138 59.4992 40.7048 53.6007 40.7048Z" fill="#529BEF"/>
<path d="M37.0268 43.0576C31.1446 43.0576 25.1811 41.4169 25.1811 38.2847C25.1811 37.8207 25.5386 37.4561 25.9936 37.4561C26.4486 37.4561 26.8061 37.8207 26.8061 38.2847C26.8061 39.5608 30.7871 41.4004 37.0268 41.4004C43.2665 41.4004 47.2476 39.5608 47.2476 38.2847C47.2476 37.8207 47.605 37.4561 48.06 37.4561C48.515 37.4561 48.8725 37.8207 48.8725 38.2847C48.8725 41.4335 42.909 43.0576 37.0268 43.0576Z" fill="#529BEF"/>
<path d="M37.0267 47.9961C31.1445 47.9961 25.1811 46.3554 25.1811 43.2233V38.3013C25.1811 37.8372 25.5385 37.4727 25.9935 37.4727C26.4485 37.4727 26.806 37.8372 26.806 38.3013V43.2233C26.806 44.4993 30.787 46.3389 37.0267 46.3389C43.2664 46.3389 47.2474 44.4993 47.2474 43.2233V38.3013C47.2474 37.8372 47.6049 37.4727 48.0599 37.4727C48.5149 37.4727 48.8723 37.8372 48.8723 38.3013V43.2233C48.8723 46.3554 42.9089 47.9961 37.0267 47.9961Z" fill="#529BEF"/>
<path d="M37.0269 38.2518C31.1447 38.2518 25.1813 36.6112 25.1813 33.479C25.1813 33.015 25.5387 32.6504 25.9937 32.6504C26.4487 32.6504 26.8062 33.015 26.8062 33.479C26.8062 34.7551 30.7872 36.5946 37.0269 36.5946C43.2666 36.5946 47.2477 34.7551 47.2477 33.479C47.2477 33.015 47.6052 32.6504 48.0601 32.6504C48.5151 32.6504 48.8726 33.015 48.8726 33.479C48.8726 36.6112 42.9092 38.2518 37.0269 38.2518Z" fill="#529BEF"/>
<path d="M37.0268 43.1904C31.1446 43.1904 25.1812 41.5498 25.1812 38.4176V33.4956C25.1812 33.0316 25.5387 32.667 25.9936 32.667C26.4486 32.667 26.8061 33.0316 26.8061 33.4956V38.4176C26.8061 39.6937 30.7871 41.5332 37.0268 41.5332C43.2665 41.5332 47.2475 39.6937 47.2475 38.4176V33.4956C47.2475 33.0316 47.605 32.667 48.06 32.667C48.515 32.667 48.8725 33.0316 48.8725 33.4956V38.4176C48.8725 41.5498 42.909 43.1904 37.0268 43.1904Z" fill="#529BEF"/>
<path d="M37.0267 33.4454C31.1445 33.4454 25.181 31.8048 25.181 28.6728C25.181 28.2088 25.5385 27.8442 25.9935 27.8442C26.4485 27.8442 26.8059 28.2088 26.8059 28.6728C26.8059 29.9488 30.787 31.7883 37.0267 31.7883C43.2664 31.7883 47.2474 29.9488 47.2474 28.6728C47.2474 28.2088 47.6049 27.8442 48.0599 27.8442C48.5148 27.8442 48.8723 28.2088 48.8723 28.6728C48.8723 31.8214 42.9089 33.4454 37.0267 33.4454Z" fill="#529BEF"/>
<path d="M37.0268 38.3838C31.1446 38.3838 25.1811 36.7431 25.1811 33.6109V28.689C25.1811 28.2249 25.5386 27.8604 25.9936 27.8604C26.4486 27.8604 26.8061 28.2249 26.8061 28.689V33.6109C26.8061 34.887 30.7871 36.7266 37.0268 36.7266C43.2665 36.7266 47.2475 34.887 47.2475 33.6109V28.689C47.2475 28.2249 47.605 27.8604 48.06 27.8604C48.5149 27.8604 48.8724 28.2249 48.8724 28.689V33.6109C48.8724 36.7431 42.909 38.3838 37.0268 38.3838Z" fill="#529BEF"/>
<path d="M37.0267 28.5737C31.1445 28.5737 25.181 26.933 25.181 23.8008C25.181 23.3368 25.5385 22.9722 25.9935 22.9722C26.4485 22.9722 26.8059 23.3368 26.8059 23.8008C26.8059 25.0769 30.787 26.9165 37.0267 26.9165C43.2664 26.9165 47.2474 25.0769 47.2474 23.8008C47.2474 23.3368 47.6049 22.9722 48.0599 22.9722C48.5148 22.9722 48.8723 23.3368 48.8723 23.8008C48.8723 26.933 42.9089 28.5737 37.0267 28.5737Z" fill="#529BEF"/>
<path d="M37.0267 33.4958C31.1445 33.4958 25.181 31.8551 25.181 28.7229V23.8008C25.181 23.3368 25.5385 22.9722 25.9935 22.9722C26.4485 22.9722 26.8059 23.3368 26.8059 23.8008V28.7229C26.8059 29.999 30.787 31.8386 37.0267 31.8386C43.2664 31.8386 47.2474 29.999 47.2474 28.7229V23.8008C47.2474 23.3368 47.6049 22.9722 48.0599 22.9722C48.5148 22.9722 48.8723 23.3368 48.8723 23.8008V28.7229C48.8723 31.8717 42.9089 33.4958 37.0267 33.4958Z" fill="#529BEF"/>
<path d="M37.0267 23.7676C31.1445 23.7676 25.1811 22.1269 25.1811 18.9946C25.1811 15.8624 31.1445 14.2217 37.0267 14.2217C42.909 14.2217 48.8724 15.8624 48.8724 18.9946C48.8724 22.1269 42.909 23.7676 37.0267 23.7676ZM37.0267 15.879C30.7871 15.879 26.806 17.7185 26.806 18.9946C26.806 20.2707 30.7871 22.1103 37.0267 22.1103C43.2664 22.1103 47.2475 20.2707 47.2475 18.9946C47.2475 17.7351 43.2664 15.879 37.0267 15.879Z" fill="#529BEF"/>
<path d="M37.0267 28.6897C31.1445 28.6897 25.181 27.049 25.181 23.9167V18.9947C25.181 18.5306 25.5385 18.166 25.9935 18.166C26.4485 18.166 26.8059 18.5306 26.8059 18.9947V23.9167C26.8059 25.1928 30.787 27.0324 37.0267 27.0324C43.2664 27.0324 47.2474 25.1928 47.2474 23.9167V18.9947C47.2474 18.5306 47.6049 18.166 48.0599 18.166C48.5148 18.166 48.8723 18.5306 48.8723 18.9947V23.9167C48.8723 27.0656 42.9089 28.6897 37.0267 28.6897Z" fill="#529BEF"/>
</svg>
