<svg width="78" height="56" viewBox="0 0 78 56" fill="none" xmlns="http://www.w3.org/2000/svg">
<path d="M64.2999 27.9458H12.661V30.0956H64.2999V27.9458Z" fill="#20201D"/>
<path d="M64.2999 22.5718H12.661V24.7214H64.2999V22.5718Z" fill="#20201D"/>
<path d="M10.5534 42.9937H8.44565V3.22498C8.44565 1.39777 9.81566 0.000488281 11.6072 0.000488281C13.3988 0.000488281 14.7688 1.39777 14.7688 3.22498V40.844H12.6611V3.22498C12.6611 2.58008 12.2395 2.15015 11.6072 2.15015C10.9749 2.15015 10.5534 2.58008 10.5534 3.22498V42.9937Z" fill="#20201D"/>
<path d="M69.5692 45.1432H67.4614V3.22497C67.4614 2.58007 67.0399 2.15014 66.4076 2.15014C65.7753 2.15014 65.3537 2.58007 65.3537 3.22497V42.9935H63.246V3.22497C63.246 1.39776 64.616 0.000488281 66.4076 0.000488281C68.1991 0.000488281 69.5692 1.39776 69.5692 3.22497V45.1432Z" fill="#20201D"/>
<path d="M9.49937 30.0956H1.06851C0.436191 30.0956 0.0146484 29.6656 0.0146484 29.0208C0.0146484 28.3759 0.436191 27.9459 1.06851 27.9459H8.44551V24.7214H1.06851C0.436191 24.7214 0.0146484 24.2915 0.0146484 23.6466C0.0146484 23.0017 0.436191 22.5718 1.06851 22.5718H9.49937C10.1317 22.5718 10.5532 23.0017 10.5532 23.6466V29.0208C10.5532 29.6656 10.1317 30.0956 9.49937 30.0956Z" fill="#20201D"/>
<path d="M76.9461 30.0956H68.5153C67.883 30.0956 67.4614 29.6656 67.4614 29.0208V23.6466C67.4614 23.0017 67.883 22.5718 68.5153 22.5718H76.9461C77.5785 22.5718 78 23.0017 78 23.6466C78 24.2915 77.5785 24.7214 76.9461 24.7214H69.5691V27.9459H76.9461C77.5785 27.9459 78 28.3759 78 29.0208C78 29.6656 77.5785 30.0956 76.9461 30.0956Z" fill="#20201D"/>
<path d="M39.0074 18.2726C23.5157 18.2726 13.3987 8.7068 12.9772 8.27687C12.5556 7.84695 12.5556 7.20207 12.9772 6.77215C13.3987 6.34223 14.031 6.34223 14.4526 6.77215C14.558 6.87963 24.3588 16.123 39.0074 16.123C53.656 16.123 63.4568 6.87963 63.5622 6.77215C63.9838 6.34223 64.6161 6.34223 65.0376 6.77215C65.4591 7.20207 65.4591 7.84695 65.0376 8.27687C64.6161 8.7068 54.4991 18.2726 39.0074 18.2726Z" fill="#20201D"/>
<path d="M1.06844 24.7214C0.857673 24.7214 0.541516 24.614 0.330745 24.399C-0.0907969 23.9691 -0.0907953 23.3242 0.225361 22.8943C0.330747 22.7868 8.55081 13.436 8.34004 7.52451C8.34004 6.87963 8.76158 6.44971 9.39389 6.44971C10.0262 6.44971 10.4478 6.87963 10.4478 7.52451C10.5531 14.2958 2.1223 23.9691 1.70076 24.399C1.59537 24.614 1.3846 24.7214 1.06844 24.7214Z" fill="#20201D"/>
<path d="M76.9462 24.7214C76.6301 24.7214 76.4193 24.614 76.2085 24.399C75.8924 23.9691 67.3562 14.2958 67.4615 7.52451C67.4615 6.87963 67.9885 6.44971 68.5154 6.44971C69.1477 6.44971 69.5692 6.98711 69.5692 7.52451C69.4639 13.436 77.6839 22.7868 77.6839 22.8943C78.1055 23.3242 78.0001 23.9691 77.5785 24.399C77.4731 24.614 77.157 24.7214 76.9462 24.7214Z" fill="#20201D"/>
<path d="M39.0074 24.7214C38.375 24.7214 37.9535 24.2915 37.9535 23.6466V17.1978C37.9535 16.553 38.375 16.123 39.0074 16.123C39.6397 16.123 40.0613 16.553 40.0613 17.1978V23.6466C40.0613 24.2915 39.6397 24.7214 39.0074 24.7214Z" fill="#20201D"/>
<path d="M47.4381 24.7214C46.8058 24.7214 46.3843 24.2915 46.3843 23.6466V17.1978C46.3843 16.553 46.8058 16.123 47.4381 16.123C48.0704 16.123 48.4919 16.553 48.4919 17.1978V23.6466C48.4919 24.2915 48.0704 24.7214 47.4381 24.7214Z" fill="#20201D"/>
<path d="M55.8691 24.7213C55.2368 24.7213 54.8153 24.2914 54.8153 23.6465V13.9732C54.8153 13.3284 55.2368 12.8984 55.8691 12.8984C56.5014 12.8984 56.923 13.3284 56.923 13.9732V23.6465C56.923 24.2914 56.5014 24.7213 55.8691 24.7213Z" fill="#20201D"/>
<path d="M30.5766 24.7214C29.9443 24.7214 29.5227 24.2915 29.5227 23.6466V17.1978C29.5227 16.553 29.9443 16.123 30.5766 16.123C31.2089 16.123 31.6305 16.553 31.6305 17.1978V23.6466C31.6305 24.2915 31.2089 24.7214 30.5766 24.7214Z" fill="#20201D"/>
<path d="M22.1456 24.7213C21.5133 24.7213 21.0918 24.2914 21.0918 23.6465V13.9732C21.0918 13.3284 21.5133 12.8984 22.1456 12.8984C22.7779 12.8984 23.1995 13.3284 23.1995 13.9732V23.6465C23.1995 24.2914 22.7779 24.7213 22.1456 24.7213Z" fill="#20201D"/>
<path d="M25.834 45.5731C23.9371 45.5731 22.0401 44.9282 20.354 43.7459L20.0378 43.5309C17.6139 41.7037 14.1362 41.7037 11.7123 43.5309L11.3962 43.7459C8.2346 46.218 3.70302 46.218 0.54145 43.7459C0.119907 43.4234 0.014521 42.671 0.330678 42.2411C0.646835 41.8112 1.38454 41.7037 1.80608 42.0261C4.22995 43.8534 7.70767 43.8534 10.1315 42.0261L10.4477 41.8111C13.6093 39.339 18.1409 39.339 21.3024 41.8111L21.6186 42.0261C24.0424 43.8534 27.5202 43.8534 29.944 42.0261L30.2602 41.8111C32.8948 39.7689 36.3726 39.4465 39.3234 40.7363C39.6395 40.9513 40.0611 41.0587 40.3772 41.2737C40.9042 41.5962 41.0095 42.2411 40.6934 42.7785C40.3772 43.3159 39.7449 43.4234 39.218 43.101C39.0072 42.886 38.6911 42.7785 38.3749 42.671C36.0564 41.5962 33.4218 41.9186 31.4194 43.5309L31.1033 43.7459C29.6279 45.0357 27.7309 45.5731 25.834 45.5731Z" fill="#529BEF"/>
<path d="M72.5199 46.8629C70.6229 46.8629 68.726 46.218 67.0398 45.0358L66.4075 44.6059C63.9836 42.7787 60.5059 42.7787 58.082 44.6059L57.7659 44.8208C54.6043 47.2928 50.0727 47.2928 46.9111 44.8208L46.595 44.6059C45.4357 43.746 44.0657 43.2087 42.5903 43.2087C41.4311 43.2087 40.2718 43.4236 39.218 43.961C38.9018 44.176 38.4803 44.3909 38.1641 44.6059L37.848 44.8208C37.4264 45.1433 36.6887 45.0358 36.3725 44.6059C36.0564 44.176 36.1618 43.4236 36.5833 43.1012L36.8995 42.8862C37.321 42.5638 37.7426 42.2414 38.1641 42.0264C39.5341 41.2741 41.0095 40.9516 42.4849 41.0591C44.3819 41.0591 46.1734 41.704 47.6488 42.8862L47.965 43.1012C50.3889 44.9283 53.8666 44.9283 56.2905 43.1012L56.6066 42.8862C59.7682 40.4142 64.2998 40.4142 67.4614 42.8862L68.0937 43.3161C70.4122 45.1433 73.6791 45.2507 76.103 43.5311C76.6299 43.2087 77.2622 43.3161 77.5784 43.8535C77.8945 44.3909 77.7892 45.0358 77.2622 45.3582C75.9976 46.433 74.3114 46.8629 72.5199 46.8629Z" fill="#529BEF"/>
<path d="M30.0495 55.8915C28.3633 55.8915 26.5717 55.3541 25.2017 54.2792L24.8856 54.0643C22.7778 52.452 19.827 52.452 17.6139 54.0643C17.1924 54.3867 16.4547 54.2793 16.1385 53.8493C15.8224 53.4194 15.9278 52.667 16.3493 52.3445C19.1947 50.1948 23.1994 50.1948 26.1502 52.3445L26.4663 52.5595C28.5741 54.1718 31.5249 54.1718 33.738 52.5595L34.0541 52.3445C36.8995 50.1948 40.9042 50.1948 43.855 52.3445L44.1712 52.5595C46.2789 54.1718 49.2297 54.1718 51.4428 52.5595L51.9697 52.1295C54.7097 49.9798 58.5036 49.8723 61.349 51.9146C61.876 52.237 61.9813 52.8819 61.6652 53.4194C61.349 53.9568 60.7167 54.0643 60.1898 53.7418C58.0821 52.3445 55.2367 52.3445 53.2343 53.9568L52.7074 54.3867C49.862 56.5365 45.8573 56.5365 42.9065 54.3867L42.5904 54.1718C40.4826 52.5595 37.5318 52.5595 35.3187 54.1718L35.0026 54.3867C33.5272 55.3541 31.841 55.8915 30.0495 55.8915Z" fill="#529BEF"/>
</svg>
