<svg width="79" height="59" viewBox="0 0 79 59" fill="none" xmlns="http://www.w3.org/2000/svg">
<path d="M77.8807 58.7746L0.790072 19.0061C0.601893 18.8806 0.47644 18.6924 0.47644 18.5043V0.564535C0.47644 0.250904 0.727345 0 1.04098 0H57.181C57.4319 0 57.6201 0.125452 57.6828 0.376357L78.6334 58.1473C78.8216 58.5864 78.3198 59.0255 77.8807 58.7746Z" fill="white"/>
<path d="M57.181 0.376357C57.2437 0.376357 57.3065 0.439082 57.3065 0.439082L78.2571 58.21C78.2571 58.21 78.2571 58.2727 78.2571 58.3355C78.2571 58.3982 78.1943 58.3982 78.1316 58.3982H78.0689L0.97825 18.6924C0.915524 18.6924 0.915524 18.6297 0.915524 18.567V0.564535C0.915524 0.501809 0.978251 0.439082 1.04098 0.439082H57.181V0.376357ZM57.181 0H1.04098C0.727345 0 0.47644 0.250904 0.47644 0.564535V18.567C0.47644 18.7552 0.601893 18.9433 0.790072 19.0688L77.8807 58.8373C77.9434 58.9 78.0689 58.9 78.1316 58.9C78.508 58.9 78.8216 58.5236 78.6334 58.1473L57.6828 0.376357C57.6201 0.125452 57.3692 0 57.181 0Z" fill="#529BEF"/>
<path d="M58.3728 14.7406L78.5707 58.0845C78.7588 58.5236 78.3198 59.0254 77.8807 58.8372L14.5271 35.7539C14.2762 35.6912 14.1508 35.4403 14.1508 35.2521V14.9915C14.1508 14.6779 14.4017 14.427 14.7153 14.427H57.9337C58.1219 14.427 58.3101 14.5525 58.3728 14.7406Z" fill="#529BEF"/>
<path d="M5.61997 7.46444C5.61997 7.27626 5.55725 7.1508 5.43179 7.08808C5.30634 6.96263 5.11816 6.96263 4.92998 6.96263C4.7418 6.96263 4.61635 7.02535 4.4909 7.08808C4.36545 7.21353 4.30272 7.27626 4.30272 7.46444H3.67546C3.67546 7.27626 3.73818 7.08808 3.86364 6.96263C3.98909 6.83717 4.11454 6.71172 4.30272 6.58627C4.4909 6.52354 4.67908 6.46082 4.92998 6.46082C5.36907 6.46082 5.6827 6.52354 5.87088 6.71172C6.12178 6.8999 6.18451 7.1508 6.18451 7.46444C6.18451 7.65261 6.12178 7.77807 6.05906 7.90352C5.93361 8.02897 5.80815 8.15443 5.61997 8.21715C5.80815 8.27988 5.99633 8.40533 6.05906 8.53078C6.18451 8.65624 6.24724 8.84441 6.24724 9.03259C6.24724 9.34622 6.12178 9.59713 5.87088 9.78531C5.61997 9.97349 5.30634 10.0989 4.86726 10.0989C4.61635 10.0989 4.36545 10.0362 4.17727 9.97349C3.98909 9.91076 3.80091 9.78531 3.73818 9.59713C3.61273 9.47168 3.61273 9.2835 3.61273 9.03259H4.24C4.24 9.15805 4.30272 9.34623 4.42817 9.40895C4.55363 9.47168 4.7418 9.59713 4.92998 9.59713C5.18089 9.59713 5.30634 9.5344 5.43179 9.47168C5.55725 9.34623 5.61997 9.22077 5.61997 9.09532C5.61997 8.90714 5.55725 8.71896 5.43179 8.65624C5.30634 8.59351 5.11816 8.53078 4.92998 8.53078H4.4909V8.02897H4.86726C5.36907 7.96625 5.61997 7.77807 5.61997 7.46444Z" fill="#529BEF"/>
<path d="M10.1989 10.9144H9.6344V10.0362H7.2508V10.9144H6.62354V9.5344H6.93717C7.06262 9.40895 7.18807 9.22077 7.2508 8.90714C7.31352 8.65623 7.37625 8.3426 7.43898 8.02897L7.5017 6.46082H9.75985V9.5344H10.1989V10.9144ZM7.62716 9.5344H9.19531V6.96263H8.12897L8.06624 7.96625C8.00351 8.65623 7.87806 9.15804 7.62716 9.5344Z" fill="#529BEF"/>
<path d="M11.328 8.71896V10.0362H10.7007V6.46082H12.0807C12.4571 6.46082 12.7707 6.58627 13.0216 6.77445C13.2725 6.96263 13.398 7.27626 13.398 7.58989C13.398 7.96625 13.2725 8.21715 13.0216 8.40533C12.7707 8.59351 12.4571 8.71896 12.0807 8.71896H11.328V8.71896ZM11.328 8.21715H12.0807C12.3316 8.21715 12.4571 8.15442 12.5825 8.0917C12.708 7.96625 12.7707 7.84079 12.7707 7.65261C12.7707 7.46443 12.708 7.27626 12.5825 7.21353C12.4571 7.08808 12.3316 7.02535 12.0807 7.02535H11.328V8.21715Z" fill="#529BEF"/>
<path d="M15.7189 9.22077H14.3389L14.0253 10.0362H13.398L14.778 6.46082H15.3425L16.7225 10.0362H16.0952L15.7189 9.22077ZM14.4644 8.71896H15.5307L15.0289 7.21353L14.4644 8.71896Z" fill="#529BEF"/>
<path d="M17.0989 10.0362V6.46082H18.3534C18.7298 6.46082 19.0434 6.52354 19.2943 6.71172C19.4825 6.8999 19.6079 7.08808 19.6079 7.46444C19.6079 7.65261 19.5452 7.77807 19.4825 7.90352C19.4197 8.02897 19.2943 8.15443 19.1061 8.21715C19.2943 8.27988 19.4197 8.3426 19.5452 8.53078C19.6707 8.65624 19.7334 8.84441 19.7334 9.03259C19.7334 9.34622 19.6079 9.59713 19.4198 9.78531C19.2316 9.97349 18.9179 10.0362 18.4789 10.0362H17.0989ZM17.7261 7.96625H18.3534C18.5416 7.96625 18.7298 7.90352 18.7925 7.84079C18.9179 7.77807 18.9807 7.65261 18.9807 7.46444C18.9807 7.27626 18.9179 7.1508 18.8552 7.08808C18.7298 7.02535 18.6043 6.96263 18.3534 6.96263H17.7261V7.96625ZM17.7261 8.40533V9.5344H18.4161C18.6043 9.5344 18.7925 9.47168 18.8552 9.40895C18.9807 9.2835 19.0434 9.15805 19.0434 9.03259C19.0434 8.65624 18.8552 8.46806 18.4789 8.46806H17.7261V8.40533Z" fill="#529BEF"/>
<path d="M23.1206 8.3426C23.1206 8.71896 23.0579 9.03259 22.9324 9.2835C22.8069 9.5344 22.6188 9.72258 22.4306 9.91076C22.1797 10.0362 21.9288 10.0989 21.6779 10.0989C21.3642 10.0989 21.1133 10.0362 20.9252 9.91076C20.6743 9.78531 20.5488 9.59713 20.4233 9.2835C20.2979 9.03259 20.2352 8.71896 20.2352 8.40533V8.21715C20.2352 7.84079 20.2979 7.58989 20.4233 7.27626C20.5488 7.02535 20.737 6.77445 20.9252 6.64899C21.1761 6.52354 21.427 6.46082 21.6779 6.46082C21.9915 6.46082 22.2424 6.52354 22.4306 6.64899C22.6815 6.77445 22.8069 6.96263 22.9324 7.27626C23.0579 7.52716 23.1206 7.84079 23.1206 8.21715V8.3426ZM22.4933 8.15443C22.4933 7.77807 22.4306 7.46444 22.2424 7.21353C22.117 7.02535 21.8661 6.8999 21.6151 6.8999C21.3642 6.8999 21.1133 7.02535 20.9879 7.21353C20.8624 7.40171 20.737 7.71534 20.737 8.0917V8.27988C20.737 8.65623 20.7997 8.96987 20.9879 9.22077C21.1133 9.40895 21.3642 9.5344 21.6151 9.5344C21.8661 9.5344 22.117 9.40895 22.2424 9.22077C22.3679 9.03259 22.4933 8.71896 22.4933 8.27988V8.15443Z" fill="#529BEF"/>
<path d="M26.6332 8.3426C26.6332 8.71896 26.5705 9.03259 26.445 9.2835C26.3196 9.5344 26.1314 9.72258 25.9432 9.91076C25.6923 10.0362 25.4414 10.0989 25.1905 10.0989C24.8769 10.0989 24.626 10.0362 24.4378 9.91076C24.1869 9.78531 24.0614 9.59713 23.936 9.2835C23.8105 9.03259 23.7478 8.71896 23.7478 8.40533V8.21715C23.7478 7.84079 23.8105 7.58989 23.936 7.27626C24.0614 7.02535 24.2496 6.77445 24.4378 6.64899C24.6887 6.52354 24.9396 6.46082 25.1905 6.46082C25.5041 6.46082 25.755 6.52354 25.9432 6.64899C26.1941 6.77445 26.3196 6.96263 26.445 7.27626C26.5705 7.52716 26.6332 7.84079 26.6332 8.21715V8.3426ZM26.006 8.15443C26.006 7.77807 25.9432 7.46444 25.755 7.21353C25.6296 7.02535 25.3787 6.8999 25.1278 6.8999C24.8769 6.8999 24.626 7.02535 24.5005 7.21353C24.3751 7.40171 24.2496 7.71534 24.2496 8.0917V8.27988C24.2496 8.65623 24.3123 8.96987 24.5005 9.22077C24.626 9.40895 24.8769 9.5344 25.1278 9.5344C25.3787 9.5344 25.6296 9.40895 25.755 9.22077C25.8805 9.03259 26.006 8.71896 26.006 8.27988V8.15443Z" fill="#529BEF"/>
<path d="M28.2642 7.77807L29.0169 6.46082H29.7069L28.6405 8.21715L29.7696 10.0362H29.0169L28.2642 8.71896L27.5114 10.0362H26.7587L27.8878 8.21715L26.8215 6.46082H27.5114L28.2642 7.77807Z" fill="#529BEF"/>
<path d="M30.8986 8.71896V10.0362H30.2714V6.46082H31.6513C32.0277 6.46082 32.3413 6.58627 32.5922 6.77445C32.8431 6.96263 32.9686 7.27626 32.9686 7.58989C32.9686 7.96625 32.8431 8.21715 32.5922 8.40533C32.3413 8.59351 32.0277 8.71896 31.6513 8.71896H30.8986V8.71896ZM30.8986 8.21715H31.6513C31.9022 8.21715 32.0277 8.15442 32.1532 8.0917C32.2786 7.96625 32.3413 7.84079 32.3413 7.65261C32.3413 7.46443 32.2786 7.27626 32.1532 7.21353C32.0277 7.08808 31.9022 7.02535 31.6513 7.02535H30.8986V8.21715Z" fill="#529BEF"/>
<path d="M35.2268 9.22077H33.8468L33.5331 10.0362H32.9059L34.2859 6.46082H34.8504L36.2304 10.0362H35.6031L35.2268 9.22077ZM34.035 8.71896H35.1013L34.5368 7.21353L34.035 8.71896Z" fill="#529BEF"/>
<path d="M39.4922 10.0362H38.8649V8.46806H37.234V10.0362H36.6068V6.46082H37.234V7.96625H38.8649V6.46082H39.4922V10.0362Z" fill="#529BEF"/>
<path d="M42.3148 8.4682H40.8721V9.59727H42.5657V10.0991H40.2449V6.52368H42.5657V7.02549H40.8721V8.02911H42.3148V8.4682Z" fill="#529BEF"/>
<path d="M45.953 10.0362H45.3257V8.46806H43.6948V10.0362H43.0676V6.46082H43.6948V7.96625H45.3257V6.46082H45.953V10.0362Z" fill="#529BEF"/>
<path d="M48.8384 6.46082H49.4656V10.0362H48.8384V7.46444L47.2702 10.0362H46.6429V6.46082H47.2702V9.03259L48.8384 6.46082Z" fill="#529BEF"/>
<path d="M52.2883 8.4682H50.8456V9.59727H52.5392V10.0991H50.2183V6.52368H52.5392V7.02549H50.8456V8.02911H52.2883V8.4682Z" fill="#529BEF"/>
<path d="M17.4752 18.0651H16.4716V15.6815H15.5934V21.2641H16.4716V18.8805H17.4752V21.2641H18.3534V15.6815H17.4752V18.0651ZM29.0796 21.2641V15.6815H28.1387L27.386 17.9396L27.0724 19.1942V15.6815H26.3196V21.2641H27.1978L27.9505 18.6924L28.2642 17.3124V21.2641H29.0796ZM24.8142 21.9541H25.6924V20.4487H25.316V15.6815H24.4379V20.4487H23.4342V15.6815H22.5561V21.2641H24.8769V21.9541H24.8142ZM19.7961 15.6815L18.9179 21.2641H19.7334L19.8588 20.2605H20.9252L21.0506 21.2641H21.9915L21.1134 15.6815H19.7961ZM19.9843 19.4451L20.4234 16.6224L20.8625 19.4451H19.9843ZM45.0748 17.7515H44.6357V15.6815H43.7576V21.2641H45.0748C45.953 21.2641 46.3921 20.7623 46.3921 19.8842V19.1314C46.3293 18.2533 45.953 17.7515 45.0748 17.7515ZM45.5139 19.8842C45.5139 20.2605 45.3884 20.386 45.0748 20.386H44.6357V18.5042H45.0748C45.3257 18.5042 45.5139 18.6296 45.5139 19.006V19.8842ZM51.7238 17.7515H51.2847V15.6815H50.4065V21.2641H51.7238C52.602 21.2641 53.041 20.7623 53.041 19.8842V19.1314C53.041 18.2533 52.602 17.7515 51.7238 17.7515ZM52.1629 19.8842C52.1629 20.2605 52.0374 20.386 51.7238 20.386H51.2847V18.5042H51.7238C51.9747 18.5042 52.1629 18.6296 52.1629 19.006V19.8842ZM53.5429 21.2641H54.421V15.6815H53.5429V21.2641ZM57.4946 16.4342V15.6188H55.111V21.2014H57.4946V20.4487H55.9892V18.8178H57.181V18.0024H55.9892V16.4342H57.4946V16.4342ZM48.8384 18.0651H47.8348V15.6815H46.9566V21.2641H47.8348V18.8805H48.8384V21.2641H49.7166V15.6815H48.8384V18.0651ZM37.234 15.6815L36.3559 21.2641H37.1713L37.2967 20.2605H38.3631L38.4885 21.2641H39.3667L38.4885 15.6815H37.234ZM37.4222 19.4451L37.8613 16.6224L38.3004 19.4451H37.4222ZM35.7913 21.2641V15.6815H34.9131V18.0651H33.9095V15.6815H33.0314V21.2641H33.9095V18.8805H34.9131V21.2641H35.7913ZM31.0241 21.3269C31.9023 21.3269 32.3414 20.8251 32.3414 19.9469V17.0615C32.3414 16.1833 31.9023 15.6815 31.0241 15.6815C30.1459 15.6815 29.7069 16.1833 29.7069 17.0615V19.9469C29.7069 20.7623 30.2087 21.3269 31.0241 21.3269ZM30.585 16.936C30.585 16.5597 30.7732 16.3715 31.0241 16.3715C31.275 16.3715 31.4632 16.4969 31.4632 16.936V19.9469C31.4632 20.3232 31.275 20.5114 31.0241 20.5114C30.7732 20.5114 30.585 20.386 30.585 19.9469V16.936ZM40.4331 19.8842C40.4331 20.386 40.3076 20.4487 39.8685 20.4487V21.2641H39.994C40.8721 21.2641 41.2485 20.8878 41.2485 19.8214L41.374 16.4342H42.1267V21.2014H43.0048V15.6188H40.5585L40.4331 19.8842ZM20.3606 22.3305H19.0434V27.9131H19.9216V25.8432H20.3606C21.2388 25.8432 21.6779 25.3414 21.6779 24.4632V23.7105C21.6779 22.8323 21.2388 22.3305 20.3606 22.3305ZM20.7997 24.5259C20.7997 24.9023 20.6743 25.0277 20.3606 25.0277H19.9216V23.1459H20.3606C20.6116 23.1459 20.7997 23.2714 20.7997 23.6477V24.5259ZM15.5934 27.9131H16.4716V23.1459H17.4752V27.9131H18.3534V22.3305H15.5934V27.9131ZM36.4186 24.4632H35.9795V22.3305H35.1641V27.9131H36.4186C37.2967 27.9131 37.7358 27.4113 37.7358 26.5331V25.7804C37.7358 24.9023 37.2967 24.4632 36.4186 24.4632ZM36.8577 26.5959C36.8577 26.9722 36.7322 27.0977 36.4186 27.0977H35.9795V25.2159H36.4186C36.6695 25.2159 36.8577 25.3414 36.8577 25.7177V26.5959ZM25.5042 27.9131H27.8878V27.0977H26.3824V25.4668H27.5742V24.6514H26.3824V23.0832H27.8878V22.3305H25.5042V27.9131V27.9131ZM32.7804 27.9131H33.6586V23.1459H34.5995V22.3305H31.9023V23.1459H32.8432V27.9131H32.7804ZM38.2376 27.9131H39.1158V22.3305H38.2376V27.9131ZM30.585 22.3305L29.456 24.7768V22.3305H28.5778V27.9131H29.456V26.2195L29.7069 25.7177L30.585 27.9131H31.4632L30.2087 24.8395L31.4005 22.3305H30.585ZM23.5597 22.2678C22.6815 22.2678 22.2424 22.7696 22.2424 23.6477V26.5331C22.2424 27.4113 22.6815 27.9131 23.5597 27.9131C24.4379 27.9131 24.8769 27.4113 24.8769 26.5331V23.6477C24.8769 22.7696 24.3751 22.2678 23.5597 22.2678ZM23.9988 26.6586C23.9988 27.035 23.8106 27.2231 23.5597 27.2231C23.3088 27.2231 23.1206 27.0977 23.1206 26.6586V23.6477C23.1206 23.2714 23.3088 23.0832 23.5597 23.0832C23.8106 23.0832 23.9988 23.2087 23.9988 23.6477V26.6586ZM33.0314 31.3631L32.7177 32.6176V29.1049H31.965V34.6876H32.8432L33.5959 32.1158L33.9723 30.7358V34.6876H34.7877V29.1049H33.8468L33.0314 31.3631ZM29.5187 31.3631L29.2051 32.6176V29.1049H28.4523V34.6876H29.3305L30.0832 32.1158L30.4596 30.7358V34.6876H31.275V29.1049H30.3341L29.5187 31.3631ZM23.3088 28.9795C22.4306 28.9795 21.9915 29.4813 21.9915 30.3595V33.2449C21.9915 34.123 22.4306 34.6248 23.3088 34.6248C24.1869 34.6248 24.626 34.123 24.626 33.2449V32.4921H23.8106V33.3076C23.8106 33.6839 23.6224 33.8721 23.3715 33.8721C23.1206 33.8721 22.9324 33.7467 22.9324 33.3076V30.2967C22.9324 29.9204 23.1206 29.7322 23.3715 29.7322C23.6224 29.7322 23.8106 29.8576 23.8106 30.2967V30.924H24.626V30.3595C24.626 29.4813 24.1869 28.9795 23.3088 28.9795ZM26.5078 28.9795C25.6297 28.9795 25.1906 29.4813 25.1906 30.3595V33.2449C25.1906 34.123 25.6297 34.6248 26.5078 34.6248C27.386 34.6248 27.8251 34.123 27.8251 33.2449V32.4921H27.0096V33.3076C27.0096 33.6839 26.8215 33.8721 26.5705 33.8721C26.3196 33.8721 26.1315 33.7467 26.1315 33.3076V30.2967C26.1315 29.9204 26.3196 29.7322 26.5705 29.7322C26.8215 29.7322 27.0096 29.8576 27.0096 30.2967V30.924H27.8251V30.3595C27.8251 29.4813 27.386 28.9795 26.5078 28.9795ZM20.047 28.9795C19.1688 28.9795 18.7298 29.4813 18.7298 30.3595V33.2449C18.7298 34.123 19.1688 34.6248 20.047 34.6248C20.9252 34.6248 21.3643 34.123 21.3643 33.2449V30.3595C21.427 29.4813 20.9252 28.9795 20.047 28.9795ZM20.5488 33.3076C20.5488 33.6839 20.3606 33.8721 20.1097 33.8721C19.8588 33.8721 19.6707 33.7467 19.6707 33.3076V30.2967C19.6707 29.9204 19.8588 29.7322 20.1097 29.7322C20.3606 29.7322 20.5488 29.8576 20.5488 30.2967V33.3076ZM16.9107 29.0422H15.5934V34.6248H16.4716V32.5549H16.9107C17.7889 32.5549 18.2279 32.0531 18.2279 31.1749V30.4222C18.2279 29.544 17.7889 29.0422 16.9107 29.0422ZM17.3498 31.1749C17.3498 31.5513 17.2243 31.6767 16.9107 31.6767H16.4716V29.7949H16.9107C17.1616 29.7949 17.3498 29.9204 17.3498 30.2967V31.1749Z" fill="white"/>
</svg>
