<svg width="74" height="74" viewBox="0 0 74 74" fill="none" xmlns="http://www.w3.org/2000/svg">
<path d="M34.2552 61.7046C34.6915 61.8139 35.1486 61.9231 35.6057 62.0105C35.4603 61.9887 34.9824 61.9013 34.2552 61.7046Z" fill="#529BEF"/>
<path d="M35.668 62.0107C35.6473 62.0333 35.6473 62.0333 35.668 62.0107C35.6473 62.0333 35.6265 62.0333 35.6057 62.0107C35.6265 62.0107 35.6473 62.0333 35.668 62.0107Z" fill="#529BEF"/>
<path fill-rule="evenodd" clip-rule="evenodd" d="M35.3357 64.4175C35.3357 64.4175 35.8758 65.5551 37.0185 65.3363C38.5144 65.0082 41.1737 63.9799 41.1737 63.9799C41.1737 63.9799 39.5948 61.3764 41.4854 54.8786C43.376 48.3807 56.2157 40.9203 56.1949 38.4918C56.1533 36.0852 49.8374 37.9886 45.7445 39.9358C41.6516 41.8829 34.7955 40.5046 34.6085 34.0286C34.4215 27.5527 37.3094 18.342 36.2082 17.8607C35.1071 17.3793 32.1569 22.3238 30.4325 38.2293C28.6873 54.1566 35.3357 64.4175 35.3357 64.4175ZM49.3803 31.1188C49.318 34.6412 46.5548 37.4416 43.2098 37.376C39.8648 37.3104 37.2055 34.4006 37.2678 30.8782C37.3302 27.3558 40.0934 24.5554 43.4383 24.621C46.7833 24.6867 49.4426 27.5965 49.3803 31.1188Z" fill="#529BEF"/>
<path fill-rule="evenodd" clip-rule="evenodd" d="M70.1357 39.7388C68.6398 32.9566 70.0318 31.075 70.0318 31.075C66.2921 30.7906 65.7104 34.9037 66.1259 37.6604C66.9777 43.2612 66.1259 46.6742 66.0636 46.8711C66.4376 44.0488 65.8766 40.6358 65.2118 38.448C64.2976 35.4507 65.1494 33.0878 65.1494 33.0878C65.1494 33.0878 60.5371 33.2847 62.1577 40.2201C63.9444 47.8119 62.22 50.8748 62.0953 51.0498C62.7394 48.512 62.5316 46.3023 61.3682 42.1454C60.4748 38.9949 60.8488 36.7196 60.8488 36.7196C58.1894 38.0104 57.5038 40.067 58.6049 44.8583C58.8958 46.1272 59.062 47.243 59.1451 48.2057C59.1867 48.2494 59.249 48.2713 59.2906 48.3151C62.5316 50.8748 63.1757 55.7318 60.7449 59.1448C59.1036 61.4201 56.5481 62.5796 54.0342 62.2734C53.9926 62.2734 53.0162 62.1202 52.4137 61.9014C51.7488 61.6608 51.1671 61.2888 51.1671 61.2888C51.1671 61.2888 51.084 55.3161 47.7598 52.5813C47.3027 52.2969 46.7833 52.0344 46.1393 51.8593C49.7751 64.8331 37.9327 72.3154 26.5474 71.2872C27.9186 72.2717 45.5575 79.1633 61.0981 66.2333C67.5179 58.9479 72.151 48.9276 70.1357 39.7388Z" fill="#529BEF"/>
<path fill-rule="evenodd" clip-rule="evenodd" d="M58.4179 47.7024C58.2933 47.1336 58.1271 46.4772 57.9193 45.7115C57.0675 42.5611 57.3584 40.417 57.3584 40.417C57.3584 40.417 54.9068 40.8327 55.5716 46.7617C56.5689 46.8711 57.5246 47.1774 58.4179 47.7024Z" fill="#529BEF"/>
<path d="M54.2419 49.6712C54.1796 49.7149 54.1588 49.7586 54.1796 49.7804C54.2004 49.8023 54.2419 49.7804 54.3042 49.7586C54.3666 49.7149 54.3873 49.6712 54.3666 49.6493C54.3458 49.6056 54.2835 49.6275 54.2419 49.6712Z" fill="#529BEF"/>
<path d="M58.6257 49.2337C55.8832 47.0458 51.9565 47.6365 49.8997 50.5245C49.5257 51.0495 49.2349 51.5965 49.0271 52.1872C49.7127 52.8654 51.915 55.4033 52.2058 60.4134C54.8236 61.7042 58.0232 60.9604 59.8515 58.4225C61.9291 55.5346 61.3681 51.3996 58.6257 49.2337ZM54.4704 50.962C54.2211 51.0058 54.2835 50.6339 54.2835 50.6339C54.0757 50.612 53.7848 51.0495 53.7848 51.0495C53.6186 50.6557 54.8236 50.1525 54.8236 50.1525L54.7821 50.2182C54.1173 50.6557 54.4704 50.962 54.4704 50.962ZM51.7488 51.6403H57.3999C57.3999 51.7496 57.3791 51.859 57.3376 51.9684C57.1298 52.4716 56.4234 52.8654 55.5093 53.0186C55.4261 53.2811 55.2184 53.4999 54.9483 53.6093V54.1125C54.886 54.1344 54.8444 54.1562 54.8444 54.1562C54.6159 54.2438 54.4081 54.3532 54.2004 54.4625V53.5874C53.9303 53.478 53.7225 53.2592 53.6394 52.9967C52.5383 52.8217 51.7488 52.2747 51.7488 51.6403ZM52.6837 60.1728C52.6837 59.8446 53.2654 59.5602 54.0757 59.4945C54.0965 59.4289 54.138 59.3633 54.2004 59.3195C54.3042 59.2976 54.4081 59.2976 54.5328 59.2758C54.6782 59.2539 54.8236 59.232 54.9483 59.1882V59.3195C55.0106 59.3633 55.0522 59.4289 55.073 59.4945C55.8832 59.582 56.465 59.8446 56.465 60.1728H52.6837V60.1728ZM54.4912 59.0788C54.4912 59.0788 54.699 59.0351 54.9483 58.9038C55.0106 58.8819 55.0522 58.8382 55.1145 58.8163C55.53 58.5538 55.7586 58.2256 55.7793 57.8318C55.7793 57.8099 55.8209 57.3505 55.0106 56.9348V56.4316C55.5508 56.6504 55.8832 56.9348 56.0494 57.3067C56.2156 57.7005 56.091 58.0287 56.091 58.0506C56.091 58.0506 56.0079 58.3131 55.7793 58.5975C55.6131 58.7944 55.343 59.0351 54.9483 59.1445C54.8236 59.1882 54.6782 59.2101 54.512 59.232C54.4081 59.2539 54.3042 59.2758 54.2004 59.2758C54.0757 59.2976 53.9718 59.2976 53.8887 59.2976C53.7848 59.2976 53.7641 59.2758 53.7641 59.2758C53.7848 59.2539 53.9303 59.1882 54.2004 59.1226C54.2835 59.1007 54.3873 59.0788 54.4912 59.0788ZM54.2004 59.0788V55.9721V55.3814C54.3873 55.2939 54.6159 55.2064 54.8029 55.1408C54.8444 55.1189 54.9067 55.1189 54.9483 55.097V56.9348V58.8163C54.699 58.9476 54.4912 58.9913 54.4912 58.9913C54.3873 59.0351 54.2835 59.057 54.2004 59.0788ZM58.4802 51.9684C58.314 52.4935 57.9608 53.2374 57.1921 53.7843C57.1713 53.7843 56.1118 54.6376 54.9483 55.0533C54.886 55.0751 54.8444 55.097 54.7821 55.1189C54.7821 55.1189 54.512 55.2064 54.2211 55.3377C54.2211 55.3377 54.2004 55.3377 54.2004 55.3596C53.6602 55.6002 53.6602 55.7096 53.6602 55.7534C53.6602 55.7971 53.7017 55.8409 53.7641 55.8627L54.1588 56.0378V56.6066C53.7017 56.4972 53.3485 56.3441 53.12 56.1909C52.933 56.0597 52.8291 55.9284 52.8084 55.7752C52.7668 55.4252 53.2239 55.1189 53.2447 55.1189C53.2447 55.1189 53.681 54.8345 54.2419 54.5282C54.4497 54.4188 54.6782 54.3094 54.9067 54.2C54.9067 54.2 54.9275 54.1781 54.9898 54.1562C55.1768 54.0687 55.6962 53.8062 56.2156 53.4124C56.5896 53.128 56.9013 52.8217 57.1298 52.5154C57.4207 52.1435 57.5869 51.7496 57.6076 51.3558C57.6076 51.3558 57.6908 50.5682 57.2337 50.0213C56.9844 49.715 56.6104 49.5399 56.1325 49.5181C56.1118 49.5181 55.6547 49.5181 55.53 49.6275C55.2184 50.1963 55.0106 50.3057 55.0106 50.3057C54.9899 50.3276 54.9899 50.3276 54.9691 50.3276C54.9275 50.2838 54.9483 50.0213 54.9691 49.8681L54.9898 49.7368L54.9275 49.8462C54.8236 50.0431 54.5536 50.1744 54.5536 50.1744C54.5536 50.1744 54.2211 50.3276 54.0342 50.3276C53.9718 50.3276 53.9303 50.3057 53.9095 50.2838C53.9095 50.2619 53.7225 49.715 54.7821 48.9492C54.7821 48.9492 55.4469 48.5335 56.2572 48.5335C56.5065 48.5335 56.735 48.5773 56.9636 48.6429C56.9636 48.6429 57.3999 48.7961 57.8362 49.1243C58.2309 49.4306 58.688 49.9994 58.688 50.8526C58.6465 50.962 58.6465 51.3996 58.4802 51.9684Z" fill="#529BEF"/>
<path d="M22.4544 60.6321C22.496 60.4789 22.5375 60.3258 22.5791 60.1726C22.7453 59.4944 22.766 59.2975 22.766 59.2756C22.766 58.9475 22.9323 58.6412 23.2231 58.488C23.3478 58.4224 23.4724 58.4005 23.5971 58.4005C23.7841 58.4005 23.9711 58.4661 24.1165 58.5974L24.3035 58.7506C24.4905 58.9037 24.6775 59.0569 24.8644 59.21L24.8852 59.2319C25.0306 59.3632 25.1969 59.6038 25.1969 59.9976C25.1969 60.1945 25.1969 60.3914 25.1761 60.6102L25.1345 62.1636C25.1345 62.3823 25.1138 62.6011 25.1138 62.8418C27.8147 64.7014 31.0765 65.9485 35.024 66.1235L34.3384 65.1828C34.3384 65.1828 28.1678 56.6284 27.5861 44.9235C27.0044 33.2187 31.2635 23.1766 30.474 22.6297C29.6845 22.1046 26.1526 27.2022 24.5736 36.8724C22.9946 46.5425 17.0526 40.3729 15.4529 38.6226C12.7935 35.7566 13.4583 51.8152 22.4544 60.6321Z" fill="#529BEF"/>
<path d="M20.0444 39.0818C22.2467 38.9506 23.9503 36.9815 23.8256 34.6624C23.701 32.3433 21.8311 30.5493 19.6289 30.6806C17.4266 30.8119 15.723 32.7809 15.8476 35.1C15.9723 37.4191 17.8421 39.2131 20.0444 39.0818Z" fill="#529BEF"/>
<path d="M22.7453 69.3398C22.7661 69.3398 22.7868 69.318 22.8076 69.318C22.8492 69.318 22.8699 69.3398 22.9115 69.3617C23.3893 69.7774 23.8672 70.1931 24.345 70.5869C24.8852 71.0245 25.4462 71.3745 26.1318 71.5058C26.2772 71.5277 26.4434 71.5495 26.5889 71.5495C26.6096 71.5495 26.6512 71.5495 26.672 71.5495C26.8174 71.5495 26.9005 71.5058 26.9421 71.4183C26.9628 71.3526 26.9628 71.287 26.9421 71.1995C26.9005 70.9588 26.8174 70.7182 26.7135 70.5213C26.5058 70.0399 26.1941 69.6461 25.8201 69.318C25.2592 68.8148 24.6775 68.3334 24.0957 67.8302C24.0334 67.7865 24.0126 67.7209 24.0126 67.6333C24.0334 67.1739 24.075 66.7363 24.0957 66.2769C24.0957 66.2769 24.0957 66.255 24.0957 66.2331C24.1996 66.3207 24.3243 66.3863 24.4281 66.4738C24.4905 66.5176 24.5528 66.5613 24.6151 66.5613C24.6775 66.5613 24.7606 66.5176 24.8437 66.43C24.9268 66.3425 25.0099 66.2331 25.0722 66.1238C25.1761 65.9487 25.0514 65.8393 24.9475 65.7299C24.906 65.7081 24.8852 65.6643 24.8437 65.6424C24.8021 65.5987 24.7606 65.5549 24.6982 65.533L24.1373 65.0517C24.1788 63.564 24.2412 62.0763 24.2827 60.5886C24.2827 60.3917 24.2827 60.1948 24.3035 59.9979C24.3035 59.9541 24.3035 59.9104 24.2827 59.8885C24.0334 59.6697 23.8049 59.4728 23.5555 59.2759C23.5555 59.4509 23.4724 59.8666 23.327 60.4135C22.8699 62.2294 21.8311 65.4018 21.6649 65.7737C21.6234 65.7299 19.5458 64.0891 19.2341 63.8484C19.1718 63.8047 19.1718 63.7609 19.1718 63.6953C19.2341 62.6451 19.2757 61.6168 19.338 60.5667C19.338 60.4792 19.3172 60.4135 19.2549 60.3479C19.0679 60.1948 18.8809 60.0416 18.7147 59.8885C18.6524 60.3917 18.4446 60.8511 18.2784 61.2887C18.1122 61.77 17.8213 62.5138 17.6344 62.9952L17.0526 62.5795L16.5955 63.3015L17.0111 63.7828C16.8656 63.8922 16.5124 64.1547 16.367 64.2641C15.8061 64.6579 15.2451 65.0517 14.6841 65.4236C14.6426 65.4455 14.601 65.4674 14.5387 65.4893L14.4764 65.6643C14.5179 65.6862 14.5387 65.7299 14.5803 65.7518C14.6841 65.8393 14.8088 65.9487 14.9127 66.0144C14.9542 66.0362 14.9958 66.0581 15.0373 66.0581C15.0581 66.0581 15.0789 66.0581 15.0997 66.0581C16.0346 65.7737 16.9695 65.5112 17.9252 65.2049C17.9668 65.183 17.9875 65.183 18.0291 65.183C18.0914 65.183 18.133 65.2049 18.1953 65.2705C18.7978 65.8175 19.9197 66.8239 20.3145 67.1958C20.3976 67.2614 20.4391 67.3271 20.4599 67.3271C20.1067 67.6333 15.9307 70.215 15.0166 70.6088C14.9127 70.6525 14.8504 70.6525 14.8504 70.6525C14.8711 70.6963 14.8919 70.7182 14.8919 70.7182C15.0997 70.8932 15.3074 71.0901 15.536 71.2432C15.5567 71.2651 15.6191 71.287 15.6606 71.287C15.6814 71.287 15.7022 71.287 15.7229 71.287C16.8449 70.9807 17.946 70.6744 19.0471 70.39C19.4627 70.2806 19.8989 70.1493 20.3145 70.0399L20.8754 70.4994C20.917 70.5431 20.9585 70.5869 21.0001 70.6088C21.0624 70.6744 21.1455 70.7182 21.2286 70.7619C21.2494 70.7838 21.3117 70.8057 21.3741 70.8057C21.4156 70.8057 21.4779 70.7838 21.5195 70.74C21.6026 70.6525 21.6857 70.5431 21.7688 70.4337C21.8935 70.2587 21.8311 70.1275 21.7272 70.0181C21.6234 69.9087 21.5195 69.8212 21.4156 69.7118C21.6649 69.6461 21.9142 69.5586 22.1635 69.493C22.3921 69.4492 22.5791 69.4055 22.7453 69.3398Z" fill="#529BEF"/>
<path d="M65.0871 20.9235C52.7253 7.79654 32.5932 7.70903 20.1275 20.7266C10.2588 31.0531 8.16045 46.4991 13.8531 58.9915C6.02051 45.7333 7.62027 28.0776 18.5901 16.6135C31.3466 3.28963 51.9358 3.37715 64.5884 16.8104C70.6343 23.2426 73.7715 31.5563 74 39.9356C73.1067 32.9783 70.1357 26.2617 65.0871 20.9235Z" fill="#529BEF"/>
<path d="M13.6661 59.779C13.6661 59.779 6.06204 49.365 7.72413 34.7066C9.67709 17.4009 24.1788 9.30601 27.0667 8.03707C29.8092 6.83377 39.1169 2.80818 49.1933 5.84925C60.4955 9.28413 66.8323 17.926 66.8323 17.926C66.8323 17.926 55.9871 -0.757963 33.9228 2.43625C13.77 5.34605 6.29057 23.8988 5.50108 33.5908C4.73236 43.1735 7.12162 52.5373 13.6661 59.779Z" fill="#529BEF"/>
<path d="M16.2423 62.9514C16.2423 62.9514 7.9942 58.5758 4.46225 44.9238C0.930309 31.2718 5.77115 19.6544 10.4666 13.3316C15.162 7.00883 22.766 1.18923 36.6029 0.0515593C36.6029 0.0515593 14.5387 -1.78621 4.46225 16.4821C-4.59614 32.8907 0.535563 53.2594 16.2423 62.9514Z" fill="#529BEF"/>
</svg>
