<svg width="14" height="19" viewBox="0 0 14 19" fill="none" xmlns="http://www.w3.org/2000/svg">
<g clip-path="url(#clip0)">
<path d="M6.50356 18.5812C6.13193 18.1387 5.85321 17.6963 5.57448 17.2539C4.18087 15.2188 2.78725 13.0952 1.67236 10.9716C1.11491 9.90976 0.557462 8.84796 0.278739 7.69767C-0.1858 6.19345 1.52797e-05 4.77772 0.65037 3.53894C1.67236 1.59231 3.25179 0.530502 5.48158 0.0880834C8.91916 -0.531302 12.3568 1.85776 13.0071 5.13165C13.1929 6.19345 13.0071 7.16677 12.6355 8.14009C12.078 9.7328 11.2419 11.3255 10.3128 12.8297C9.19789 14.6879 7.99009 16.546 6.68938 18.4042C6.59647 18.4042 6.59647 18.4927 6.50356 18.5812ZM6.50356 17.1654C6.50356 17.0769 6.59647 17.0769 6.59647 17.0769C7.71136 15.4842 8.82626 13.803 9.84824 12.1219C10.5915 10.8831 11.2419 9.55583 11.7993 8.22858C12.1709 7.25526 12.3568 6.28194 12.1709 5.30862C11.6135 3.00804 10.127 1.50382 7.71136 1.0614C5.29576 0.442018 3.3447 1.23837 1.85817 3.09653C0.836186 4.51226 0.464554 6.01649 1.11491 7.60919C1.39363 8.40554 1.76526 9.2019 2.13689 9.99825C3.25179 12.2103 4.5525 14.3339 5.94611 16.3691C6.13193 16.6345 6.31775 16.9 6.50356 17.1654Z" fill="black"/>
<path d="M6.59646 7.60959C7.72532 7.60959 8.64043 6.73805 8.64043 5.66295C8.64043 4.58785 7.72532 3.71631 6.59646 3.71631C5.46761 3.71631 4.55249 4.58785 4.55249 5.66295C4.55249 6.73805 5.46761 7.60959 6.59646 7.60959Z" fill="white" stroke="black" stroke-miterlimit="10"/>
</g>
<defs>
<clipPath id="clip0">
<rect width="13.1" height="18.5816" fill="white"/>
</clipPath>
</defs>
</svg>
