<svg width="48" height="64" fill="none" xmlns="http://www.w3.org/2000/svg"><path d="M23.637 40.901c-8.932 0-16.206-7.267-16.206-16.187 0-8.93 7.264-16.188 16.206-16.188 8.941 0 16.205 7.267 16.205 16.188 0 8.93-7.273 16.187-16.205 16.187zm0-30.485c-7.913 0-14.353 6.416-14.353 14.298 0 7.88 6.44 14.297 14.353 14.297 7.913 0 14.352-6.416 14.352-14.297 0-7.882-6.44-14.298-14.352-14.298z" fill="#20201D"/><path d="M23.637 48.83c-1.816 0-3.382-1.106-3.994-2.826l-.102-.293a.771.771 0 0 0-.574-.5.812.812 0 0 0-.76.207l-.222.227a4.19 4.19 0 0 1-4.874.784 4.225 4.225 0 0 1-2.325-4.27l.037-.313a.801.801 0 0 0-.278-.68.819.819 0 0 0-.788-.142l-.296.104c-1.752.605-3.614.047-4.735-1.427a4.215 4.215 0 0 1-.232-4.848l.167-.264a.786.786 0 0 0 .046-.728.785.785 0 0 0-.639-.453l-.315-.038a4.18 4.18 0 0 1-3.65-3.308 4.208 4.208 0 0 1 1.88-4.507l.269-.17a.765.765 0 0 0 .01-1.305l-.27-.17a4.214 4.214 0 0 1-1.88-4.507c.398-1.796 1.834-3.1 3.65-3.308l.315-.037a.785.785 0 0 0 .64-.454.734.734 0 0 0-.047-.728l-.167-.264a4.214 4.214 0 0 1 .232-4.848A4.177 4.177 0 0 1 9.48 8.337l.297.104a.826.826 0 0 0 .787-.142.742.742 0 0 0 .278-.68l-.037-.312c-.195-1.795.713-3.468 2.326-4.271a4.177 4.177 0 0 1 4.873.784l.223.217c.287.284.63.246.76.208a.792.792 0 0 0 .574-.5l.102-.294A4.191 4.191 0 0 1 23.656.626c1.816 0 3.382 1.106 3.994 2.825l.102.293c.13.369.444.473.574.51.13.03.473.076.76-.207l.222-.227a4.19 4.19 0 0 1 4.874-.784 4.225 4.225 0 0 1 2.326 4.271l-.037.312a.801.801 0 0 0 .278.68.819.819 0 0 0 .787.142l.297-.104c1.742-.605 3.604-.047 4.734 1.427a4.215 4.215 0 0 1 .232 4.848l-.167.264a.759.759 0 0 0-.046.728.785.785 0 0 0 .64.454l.314.037a4.18 4.18 0 0 1 3.65 3.308 4.208 4.208 0 0 1-1.88 4.507l-.269.17a.765.765 0 0 0-.37.653c0 .122.037.444.37.652l.269.17a4.214 4.214 0 0 1 1.88 4.507c-.398 1.796-1.825 3.1-3.65 3.308l-.315.038a.785.785 0 0 0-.64.453.734.734 0 0 0 .047.728l.167.264a4.214 4.214 0 0 1-.232 4.848 4.177 4.177 0 0 1-4.744 1.427l-.296-.104a.819.819 0 0 0-.788.142.742.742 0 0 0-.278.68l.037.312c.195 1.796-.713 3.468-2.325 4.271-1.65.823-3.567.52-4.874-.784l-.222-.217a.787.787 0 0 0-.76-.208.792.792 0 0 0-.575.5l-.101.294a4.221 4.221 0 0 1-4.003 2.816zm-4.865-5.547c.204 0 .408.018.612.075.88.208 1.594.841 1.9 1.701l.101.293c.417 1.163 1.436 1.578 2.252 1.578.815 0 1.834-.416 2.251-1.578l.102-.293a2.64 2.64 0 0 1 1.9-1.7 2.617 2.617 0 0 1 2.464.698l.223.218c.898.898 2.02.813 2.76.435.714-.36 1.428-1.163 1.298-2.363l-.037-.312a2.654 2.654 0 0 1 .964-2.362 2.627 2.627 0 0 1 2.538-.454l.297.104c1.204.416 2.177-.142 2.687-.803.482-.624.769-1.654.13-2.674l-.167-.265a2.703 2.703 0 0 1-.158-2.56 2.637 2.637 0 0 1 2.104-1.513l.315-.038c1.25-.141 1.88-1.049 2.056-1.842.167-.775-.018-1.843-1.046-2.495l-.27-.17a2.663 2.663 0 0 1-1.24-2.259 2.65 2.65 0 0 1 1.24-2.258l.27-.17c1.037-.652 1.223-1.71 1.047-2.495-.177-.794-.807-1.701-2.057-1.843l-.315-.038a2.65 2.65 0 0 1-2.104-1.512 2.653 2.653 0 0 1 .158-2.56l.167-.265c.639-1.02.352-2.05-.13-2.665-.51-.662-1.483-1.22-2.687-.803l-.297.104a2.626 2.626 0 0 1-2.538-.454 2.677 2.677 0 0 1-.964-2.362l.037-.312c.13-1.2-.584-2.004-1.297-2.363-.75-.378-1.863-.453-2.761.435l-.223.227a2.64 2.64 0 0 1-2.464.7 2.657 2.657 0 0 1-1.9-1.702l-.102-.293c-.417-1.162-1.436-1.578-2.251-1.578-.816 0-1.835.416-2.252 1.578l-.102.293a2.64 2.64 0 0 1-1.9 1.701 2.64 2.64 0 0 1-2.473-.7l-.222-.217c-.9-.888-2.02-.812-2.761-.444-.714.36-1.427 1.163-1.298 2.363l.037.312a2.654 2.654 0 0 1-.963 2.362 2.627 2.627 0 0 1-2.539.454l-.296-.104c-1.205-.416-2.178.141-2.687.803-.482.624-.77 1.654-.13 2.665l.167.264c.481.775.537 1.73.157 2.561A2.636 2.636 0 0 1 4.272 17.9l-.315.038c-1.251.142-1.881 1.05-2.057 1.843-.167.775.018 1.843 1.047 2.495l.269.17a2.65 2.65 0 0 1 1.241 2.258 2.65 2.65 0 0 1-1.241 2.259l-.27.17c-1.037.652-1.222 1.71-1.046 2.495.176.793.806 1.7 2.057 1.842l.315.038a2.65 2.65 0 0 1 2.103 1.512c.39.832.334 1.786-.157 2.561l-.167.265c-.64 1.02-.352 2.05.13 2.674.51.661 1.482 1.219 2.687.803l.296-.104a2.623 2.623 0 0 1 2.539.454 2.677 2.677 0 0 1 .963 2.362l-.037.312c-.13 1.2.584 2.003 1.298 2.363.74.368 1.862.453 2.76-.435l.223-.227a2.69 2.69 0 0 1 1.862-.765z" fill="#20201D"/><path d="M18.615 63.175a.904.904 0 0 1-.602-.227l-5.198-4.526-6.83.264a.91.91 0 0 1-.777-.387.958.958 0 0 1-.13-.879l5.652-16.282a.929.929 0 0 1 1.186-.577c.482.17.732.719.565 1.21L7.283 56.74l5.828-.227a.95.95 0 0 1 .64.227l4.447 3.865 4.383-12.871a.924.924 0 0 1 1.176-.586c.482.17.741.709.575 1.2l-4.828 14.175a.946.946 0 0 1-.63.605.888.888 0 0 1-.26.047z" fill="#20201D"/><path d="M28.27 60.576a.68.68 0 0 1-.241-.038.946.946 0 0 1-.63-.605l-3.855-11.52a.951.951 0 0 1 .575-1.2.924.924 0 0 1 1.176.587l3.41 10.205 4.438-3.855a.934.934 0 0 1 .64-.227l5.828.227-4.41-12.625a.953.953 0 0 1 .564-1.21c.482-.18 1.01.085 1.186.577l4.874 13.938a.963.963 0 0 1-.13.88.922.922 0 0 1-.778.386l-6.829-.264-5.198 4.526a1.077 1.077 0 0 1-.62.218z" fill="#20201D"/><path d="M19.041 34.334a2.84 2.84 0 0 1-1.696-.567c-.898-.662-1.334-1.767-1.149-2.883l.612-3.628-2.585-2.57a2.963 2.963 0 0 1-.732-3.025c.343-1.077 1.232-1.842 2.335-2.003l3.567-.53 1.594-3.297a2.871 2.871 0 0 1 2.594-1.644c1.112 0 2.103.633 2.594 1.644l1.594 3.298 3.567.529a2.901 2.901 0 0 1 2.335 2.003 2.968 2.968 0 0 1-.732 3.024l-2.585 2.57.612 3.63c.185 1.115-.25 2.22-1.15 2.882a2.852 2.852 0 0 1-3.048.226l-3.196-1.71-3.197 1.71a2.8 2.8 0 0 1-1.334.34zm4.54-18.248c-.408 0-.75.217-.927.586l-1.816 3.742a.939.939 0 0 1-.694.52l-4.05.605c-.398.056-.713.33-.833.718-.12.387-.028.793.259 1.086l2.928 2.911a.96.96 0 0 1 .269.832l-.695 4.11c-.065.407.083.794.407 1.03a.982.982 0 0 0 1.094.076l3.623-1.947a.926.926 0 0 1 .861 0l3.623 1.947c.361.189.77.16 1.094-.076a1.04 1.04 0 0 0 .407-1.03l-.695-4.11a.949.949 0 0 1 .269-.841l2.928-2.911c.287-.284.389-.69.26-1.087a1.016 1.016 0 0 0-.835-.718l-4.049-.605a.907.907 0 0 1-.695-.52l-1.816-3.742a.996.996 0 0 0-.917-.576z" fill="#529BEF"/></svg>