<svg width="68" height="62" fill="none" xmlns="http://www.w3.org/2000/svg"><path d="M64.327 47.904H39.82a1.034 1.034 0 0 1-1.02-1.042c0-.572.459-1.041 1.02-1.041h24.506c.561 0 1.02-.469 1.02-1.041V3.125c0-.573-.459-1.042-1.02-1.042H3.063c-.561 0-1.02.469-1.02 1.042V44.78c0 .572.459 1.04 1.02 1.04H27.57c.561 0 1.02.47 1.02 1.042 0 .573-.459 1.042-1.02 1.042H3.063C1.378 47.904 0 46.498 0 44.78V3.125C0 1.406 1.378 0 3.063 0h61.264c1.684 0 3.063 1.406 3.063 3.125V44.78c0 1.718-1.379 3.124-3.063 3.124z" fill="#20201D"/><path d="M33.695 54.152c-3.941 0-7.148-3.27-7.148-7.29s3.207-7.29 7.148-7.29 7.147 3.27 7.147 7.29-3.206 7.29-7.147 7.29zm0-12.497c-2.818 0-5.105 2.333-5.105 5.207 0 2.874 2.287 5.207 5.105 5.207 2.818 0 5.105-2.333 5.105-5.207 0-2.874-2.287-5.207-5.105-5.207z" fill="#529BEF"/><path d="M37.78 61.441c-.154 0-.317-.041-.46-.114l-3.625-1.854-3.625 1.854a.99.99 0 0 1-.99-.042 1.045 1.045 0 0 1-.48-.885v-8.33c0-.574.46-1.042 1.021-1.042.562 0 1.021.468 1.021 1.041v6.644l2.604-1.333a.999.999 0 0 1 .908 0l2.604 1.333V52.07c0-.573.46-1.041 1.021-1.041.562 0 1.021.468 1.021 1.041v8.33c0 .365-.183.698-.48.885a1.02 1.02 0 0 1-.54.157z" fill="#529BEF"/><path d="M61.264 42.697h-18.38a1.034 1.034 0 0 1-1.02-1.041c0-.573.459-1.042 1.02-1.042h17.359V7.29H7.148v33.324h17.358c.561 0 1.02.469 1.02 1.042 0 .572-.459 1.04-1.02 1.04H6.126a1.034 1.034 0 0 1-1.02-1.04V6.249c0-.573.459-1.041 1.02-1.041h55.138c.561 0 1.02.468 1.02 1.04v35.407c0 .573-.459 1.042-1.02 1.042z" fill="#20201D"/><path d="M55.137 17.704H12.253a1.034 1.034 0 0 1-1.021-1.041c0-.573.46-1.042 1.02-1.042h42.885c.562 0 1.021.469 1.021 1.042 0 .572-.46 1.041-1.02 1.041zm0 8.331H12.253a1.034 1.034 0 0 1-1.021-1.041c0-.573.46-1.042 1.02-1.042h42.885c.562 0 1.021.469 1.021 1.041 0 .573-.46 1.042-1.02 1.042zm0 9.372H42.885a1.034 1.034 0 0 1-1.021-1.041c0-.573.459-1.041 1.02-1.041h12.253c.562 0 1.021.468 1.021 1.041s-.46 1.041-1.02 1.041z" fill="#20201D"/></svg>