<svg width="75" height="69" fill="none" xmlns="http://www.w3.org/2000/svg"><path d="M41.251 58.305a.8.8 0 0 1-.78-.63c-.666-2.751-.845-5.188-.536-7.26a.823.823 0 0 1 .926-.695c.44.066.748.497.683.944-.276 1.857-.114 4.078.504 6.613a.84.84 0 0 1-.585 1.011c-.082 0-.147.017-.212.017zm25.95-3.265a.789.789 0 0 1-.487-.166c-1.251-.945-1.885-1.657-1.918-1.69a.865.865 0 0 1 .065-1.177.81.81 0 0 1 1.154.066s.569.647 1.657 1.459a.852.852 0 0 1 .18 1.16.75.75 0 0 1-.65.348z" fill="#20201D"/><path d="M46.743 68.563a2.89 2.89 0 0 1-2.404-1.293l-3.868-5.75c-.422-.63-.666-1.492-.65-2.337.017-1.01.39-1.84 1.056-2.287l.325-.232c1.35-.945 3.445-.1 4.372 1.243l3.9 5.767c.438.646.6 1.442.454 2.22a2.943 2.943 0 0 1-1.218 1.907l-.325.232a2.735 2.735 0 0 1-1.642.53zm-4.614-10.54l-.325.232c-.212.15-.342.514-.358.961-.016.497.13 1.028.358 1.376l3.867 5.75a1.303 1.303 0 0 0 1.804.348l.325-.232c.276-.199.47-.497.536-.845a1.422 1.422 0 0 0-.195-.994l-3.9-5.767c-.471-.713-1.641-1.16-2.112-.829zm20.587 7.723h-.13l-.487-.017c-1.836-.066-3.282-1.657-3.217-3.513l.276-8.486c.032-.878.406-1.839 1.023-2.585.7-.845 1.56-1.293 2.487-1.293l.487.017c.764.033 1.511.398 2.096 1.044.715.78 1.121 1.89 1.089 2.9l-.309 8.651a3.434 3.434 0 0 1-1.056 2.37 3.246 3.246 0 0 1-2.259.912zm-.13-14.253c-.373 0-.796.249-1.137.696-.374.464-.618 1.077-.65 1.591l-.276 8.485c-.033.962.698 1.773 1.64 1.807l.488.016c.44.033.894-.149 1.219-.464a1.72 1.72 0 0 0 .553-1.21l.308-8.65c.017-.58-.243-1.26-.666-1.724-.292-.331-.634-.514-.975-.514l-.487-.016c0-.017-.017-.017-.017-.017z" fill="#20201D"/><path d="M56.834 66.773c-1.462 0-2.762-1.06-3.055-2.569l-1.365-7.656a4.222 4.222 0 0 1 .341-2.503c.44-.911 1.138-1.525 1.967-1.674l.438-.083c1.707-.33 3.462 1.41 3.787 3.083l1.38 7.557a3.135 3.135 0 0 1-.487 2.37c-.471.696-1.17 1.176-1.982 1.326l-.423.082a2.57 2.57 0 0 1-.6.067zm-1.365-12.86l-.422.083c-.439.082-.715.563-.813.762-.211.464-.292 1.027-.211 1.475l1.365 7.656a1.487 1.487 0 0 0 1.739 1.193l.422-.082c.39-.067.715-.299.943-.63.227-.332.308-.746.227-1.127l-1.381-7.557c-.163-.961-1.186-1.906-1.869-1.773z" fill="#20201D"/><path d="M51.862 68.38a3.12 3.12 0 0 1-2.909-2.038l-2.795-7.524c-.633-1.69.163-3.695 1.707-4.292l.406-.166c1.625-.63 3.591.746 4.176 2.353l2.714 7.21c.617 1.64-.195 3.463-1.804 4.093l-.406.165a3.154 3.154 0 0 1-1.089.2zm-3.006-12.462l-.406.166c-.455.182-.667.613-.764.845-.146.43-.163.911-.016 1.31l2.794 7.523c.293.779 1.154 1.177 1.918.878l.406-.165a1.53 1.53 0 0 0 .861-1.956l-2.713-7.209c-.293-.829-1.381-1.674-2.08-1.392zm21.319 2.618c-.358 0-.715-.083-1.024-.265-.812-.447-1.641-1.409-1.739-1.525-1.706-2.303-.292-5.021.7-6.132a.79.79 0 0 1 1.137-.066c.34.298.357.829.065 1.177-.082.083-1.934 2.254-.65 3.994.162.199.763.845 1.235 1.094.34.198.975-.067 1.51-.647.96-1.01 1.577-2.834.667-4.49l-.114-.216c-.227-.431-.308-.564-1.787-2.27-.634-.73-1.495-1.708-2.632-3.033-.423-.498-3.023-3.05-3.478-3.464a.849.849 0 0 1-.081-1.177.81.81 0 0 1 1.154-.083c.503.448 3.152 3.05 3.64 3.613a636.076 636.076 0 0 0 2.616 3.033c1.543 1.757 1.69 1.989 1.998 2.569l.114.198c1.332 2.387.455 5.022-.91 6.464-.764.812-1.625 1.226-2.421 1.226zM32.9 58.305c-.066 0-.13 0-.196-.017a.827.827 0 0 1-.585-1.01c.602-2.437.78-4.591.537-6.398-.065-.447.26-.878.698-.928.455-.083.845.265.91.713.26 2.005.081 4.375-.569 7.01a.818.818 0 0 1-.796.63zM6.95 55.04a.818.818 0 0 1-.65-.331c-.26-.365-.196-.895.178-1.16 1.089-.83 1.657-1.459 1.657-1.459.293-.348.813-.365 1.154-.066.341.298.357.828.065 1.176-.033.034-.666.763-1.917 1.691a.848.848 0 0 1-.488.15z" fill="#20201D"/><path d="M27.407 68.563a2.87 2.87 0 0 1-1.641-.514l-.325-.232a3.006 3.006 0 0 1-1.219-1.905 2.969 2.969 0 0 1 .455-2.221l3.9-5.784c.91-1.342 3.022-2.188 4.371-1.243l.325.232c.666.464 1.04 1.276 1.056 2.287.016.845-.227 1.724-.65 2.337l-3.867 5.75a2.848 2.848 0 0 1-2.405 1.293zm4.209-10.656c-.553 0-1.317.398-1.69.928l-3.9 5.784c-.195.282-.26.63-.195.978s.26.646.536.845l.325.232c.585.414 1.398.248 1.804-.348l3.867-5.75c.227-.349.374-.88.358-1.376 0-.448-.147-.812-.358-.962l-.325-.231a.841.841 0 0 0-.422-.1zM11.45 65.745a3.217 3.217 0 0 1-2.258-.911 3.402 3.402 0 0 1-1.057-2.37l-.308-8.65c-.033-.896.276-1.824.828-2.586.618-.829 1.48-1.326 2.373-1.359l.487-.017c.861 0 1.788.431 2.486 1.293.602.746.992 1.707 1.008 2.585l.276 8.486a3.382 3.382 0 0 1-.894 2.436 3.395 3.395 0 0 1-2.323 1.093l-.488.017c-.049-.017-.081-.017-.13-.017zm.13-14.252h-.032l-.488.017c-.39.016-.796.265-1.12.712a2.485 2.485 0 0 0-.505 1.525l.31 8.65c.015.465.21.896.552 1.21.34.315.763.514 1.218.465l.488-.017a1.655 1.655 0 0 0 1.186-.563c.309-.348.471-.78.455-1.243l-.276-8.485c-.017-.514-.26-1.11-.65-1.591-.341-.431-.764-.68-1.138-.68z" fill="#20201D"/><path d="M17.316 66.773c-.195 0-.39-.016-.585-.05l-.439-.082a3.086 3.086 0 0 1-1.982-1.343 3.208 3.208 0 0 1-.487-2.37l1.38-7.556c.31-1.674 2.064-3.414 3.787-3.083l.439.083c.828.166 1.527.762 1.966 1.674.373.779.503 1.69.341 2.502l-1.365 7.64c-.276 1.525-1.592 2.585-3.055 2.585zm1.251-12.876c-.682 0-1.576.894-1.755 1.773l-1.38 7.557c-.082.398 0 .795.227 1.143.227.332.552.564.942.63l.439.083c.796.166 1.576-.381 1.722-1.193l1.365-7.64a2.59 2.59 0 0 0-.211-1.475c-.098-.199-.374-.68-.812-.762l-.44-.083c-.015-.033-.048-.033-.097-.033z" fill="#20201D"/><path d="M22.305 68.38c-.374 0-.748-.066-1.105-.215l-.406-.166c-1.593-.63-2.405-2.453-1.804-4.093l2.713-7.21c.602-1.607 2.552-2.982 4.177-2.352l.406.165c1.543.597 2.34 2.602 1.706 4.292l-2.795 7.524a3.112 3.112 0 0 1-1.625 1.757 2.85 2.85 0 0 1-1.267.298zm2.713-12.528c-.682 0-1.527.729-1.803 1.441l-2.698 7.226a1.53 1.53 0 0 0 .862 1.956l.406.165c.373.133.764.133 1.137-.033a1.52 1.52 0 0 0 .78-.845l2.795-7.524c.309-.829-.065-1.89-.764-2.154l-.406-.166a.742.742 0 0 0-.309-.066zM3.992 58.536c-.796 0-1.658-.414-2.421-1.21-1.365-1.425-2.243-4.06-.91-6.463l.114-.199c.308-.58.454-.812 1.998-2.568a633.67 633.67 0 0 0 2.616-3.033c.472-.547 3.104-3.348 3.608-3.812a.824.824 0 0 1 1.153.067.85.85 0 0 1-.08 1.176c-.423.382-2.99 3.1-3.462 3.646a166.707 166.707 0 0 1-2.632 3.05c-1.495 1.69-1.56 1.84-1.788 2.27l-.114.215c-.91 1.641-.292 3.48.667 4.492.536.563 1.17.828 1.51.646.472-.249 1.073-.912 1.268-1.127 1.268-1.707-.65-3.928-.666-3.944a.833.833 0 0 1 .065-1.177.81.81 0 0 1 1.154.066c.991 1.11 2.42 3.829.731 6.099-.114.15-.942 1.11-1.755 1.558a2.462 2.462 0 0 1-1.056.248z" fill="#20201D"/><path d="M37.075 8.703a.813.813 0 0 1-.812-.829V1.71a.813.813 0 1 1 1.625 0v6.165c0 .448-.374.83-.813.83zm18.882 7.425a.755.755 0 0 1-.569-.249.832.832 0 0 1 0-1.177l4.274-4.358a.794.794 0 0 1 1.153 0 .832.832 0 0 1 0 1.177l-4.273 4.358a.845.845 0 0 1-.585.249zm-37.536.248a.755.755 0 0 1-.569-.248l-4.273-4.359a.832.832 0 0 1 0-1.177.794.794 0 0 1 1.154 0l4.273 4.359a.832.832 0 0 1 0 1.177.816.816 0 0 1-.585.248zm2.015 28.985c-5.882 0-11.845-1.59-11.845-4.64v-4.773a.813.813 0 1 1 1.625 0v4.773c0 1.227 3.98 2.983 10.22 2.983 2.21 0 3.884-.149 5.395-.464.439-.116.861.199.959.646a.82.82 0 0 1-.634.978c-1.625.332-3.38.498-5.72.498zm0-9.429c-5.882 0-11.845-1.59-11.845-4.64 0-4.077 10.643-5.469 17.451-4.127.439.083.731.53.65.978a.82.82 0 0 1-.959.663c-1.608-.315-3.444-.48-5.297-.48-6.24 0-10.22 1.773-10.22 2.982 0 1.21 3.98 2.984 10.22 2.984a28.93 28.93 0 0 0 5.411-.498c.439-.099.861.2.959.647a.84.84 0 0 1-.634.977c-1.739.332-3.705.514-5.736.514z" fill="#529BEF"/><path d="M20.436 40.705c-5.882 0-11.845-1.591-11.845-4.64v-4.773a.813.813 0 1 1 1.625 0v4.772c0 1.227 3.98 2.983 10.22 2.983 1.869 0 3.689-.165 5.298-.48.438-.083.86.199.958.663a.839.839 0 0 1-.65.978 31.26 31.26 0 0 1-5.606.497zM53.6 45.361c-2.03 0-3.899-.182-5.686-.546a.828.828 0 0 1-.634-.978c.097-.448.52-.746.959-.647 1.673.349 3.428.514 5.362.514 6.24 0 10.22-1.773 10.22-2.983v-4.773a.813.813 0 1 1 1.626 0v4.773c0 3.033-5.948 4.64-11.846 4.64zm.002-9.429c-1.95 0-3.868-.166-5.558-.497a.826.826 0 0 1-.65-.962.812.812 0 0 1 .943-.662c1.592.315 3.396.48 5.248.48 6.24 0 10.221-1.773 10.221-2.983 0-1.21-3.981-2.983-10.22-2.983-1.983 0-3.738.166-5.347.497-.438.1-.86-.198-.958-.646a.84.84 0 0 1 .633-.978c1.723-.348 3.575-.53 5.655-.53 5.882 0 11.846 1.59 11.846 4.64.032 3.033-5.915 4.624-11.814 4.624z" fill="#529BEF"/><path d="M53.6 40.705c-1.95 0-3.883-.182-5.573-.514a.834.834 0 0 1-.65-.978.828.828 0 0 1 .959-.663c1.592.315 3.429.481 5.281.481 6.24 0 10.22-1.773 10.22-2.983v-4.773a.813.813 0 1 1 1.626 0v4.773c-.017 3.066-5.964 4.657-11.862 4.657z" fill="#529BEF"/><path d="M37.027 43.058c-5.882 0-11.846-1.641-11.846-4.773a.813.813 0 1 1 1.625 0c0 1.276 3.981 3.115 10.22 3.115 6.24 0 10.222-1.84 10.222-3.115a.813.813 0 1 1 1.625 0c0 3.149-5.964 4.773-11.846 4.773z" fill="#529BEF"/><path d="M37.027 47.996c-5.883 0-11.846-1.64-11.846-4.773v-4.922a.813.813 0 1 1 1.625 0v4.922c0 1.276 3.981 3.116 10.22 3.116 6.24 0 10.221-1.84 10.221-3.116v-4.922a.813.813 0 1 1 1.625 0v4.922c0 3.132-5.963 4.773-11.845 4.773z" fill="#529BEF"/><path d="M37.027 38.252c-5.882 0-11.846-1.64-11.846-4.773a.813.813 0 1 1 1.625 0c0 1.276 3.981 3.116 10.22 3.116 6.24 0 10.222-1.84 10.222-3.116a.813.813 0 1 1 1.625 0c0 3.132-5.964 4.773-11.846 4.773z" fill="#529BEF"/><path d="M37.027 43.19c-5.882 0-11.846-1.64-11.846-4.772v-4.922a.813.813 0 1 1 1.625 0v4.922c0 1.276 3.981 3.115 10.22 3.115 6.24 0 10.221-1.84 10.221-3.115v-4.922a.813.813 0 1 1 1.626 0v4.922c0 3.132-5.964 4.772-11.846 4.772z" fill="#529BEF"/><path d="M37.027 33.445c-5.883 0-11.846-1.64-11.846-4.772a.813.813 0 1 1 1.625 0c0 1.276 3.981 3.115 10.22 3.115 6.24 0 10.221-1.84 10.221-3.115a.813.813 0 1 1 1.625 0c0 3.148-5.963 4.772-11.845 4.772z" fill="#529BEF"/><path d="M37.027 38.384c-5.882 0-11.846-1.64-11.846-4.773v-4.922a.813.813 0 1 1 1.625 0v4.922c0 1.276 3.981 3.116 10.22 3.116 6.24 0 10.221-1.84 10.221-3.116v-4.922a.813.813 0 1 1 1.625 0v4.922c0 3.132-5.963 4.773-11.845 4.773z" fill="#529BEF"/><path d="M37.027 28.574c-5.883 0-11.846-1.641-11.846-4.773a.813.813 0 1 1 1.625 0c0 1.276 3.981 3.116 10.22 3.116 6.24 0 10.221-1.84 10.221-3.116a.813.813 0 1 1 1.625 0c0 3.132-5.963 4.773-11.845 4.773z" fill="#529BEF"/><path d="M37.027 33.496c-5.883 0-11.846-1.64-11.846-4.773V23.8a.813.813 0 1 1 1.625 0v4.922c0 1.276 3.981 3.116 10.22 3.116 6.24 0 10.221-1.84 10.221-3.116V23.8a.813.813 0 1 1 1.625 0v4.922c0 3.149-5.963 4.773-11.845 4.773z" fill="#529BEF"/><path d="M37.027 23.768c-5.883 0-11.846-1.641-11.846-4.773 0-3.133 5.963-4.773 11.846-4.773 5.882 0 11.845 1.64 11.845 4.773 0 3.132-5.963 4.773-11.845 4.773zm0-7.889c-6.24 0-10.221 1.84-10.221 3.116s3.981 3.115 10.22 3.115c6.24 0 10.221-1.84 10.221-3.115 0-1.26-3.98-3.116-10.22-3.116z" fill="#529BEF"/><path d="M37.027 28.69c-5.883 0-11.846-1.641-11.846-4.773v-4.922a.813.813 0 1 1 1.625 0v4.922c0 1.276 3.981 3.115 10.22 3.115 6.24 0 10.221-1.84 10.221-3.115v-4.922a.813.813 0 1 1 1.625 0v4.922c0 3.149-5.963 4.773-11.845 4.773z" fill="#529BEF"/></svg>