<svg width="78" height="56" fill="none" xmlns="http://www.w3.org/2000/svg"><path d="M64.3 27.946H12.66v2.15H64.3v-2.15zm0-5.374H12.66v2.15H64.3v-2.15z" fill="#20201D"/><path d="M10.553 42.994H8.446V3.225C8.446 1.398 9.816 0 11.607 0 13.4 0 14.77 1.398 14.77 3.225v37.619h-2.11V3.225c0-.645-.421-1.075-1.054-1.075-.632 0-1.054.43-1.054 1.075v39.769zm59.017 2.149h-2.11V3.225c0-.645-.421-1.075-1.053-1.075-.633 0-1.054.43-1.054 1.075v39.768h-2.108V3.225c0-1.827 1.37-3.225 3.162-3.225 1.791 0 3.161 1.398 3.161 3.225v41.918z" fill="#20201D"/><path d="M9.5 30.096H1.068c-.633 0-1.054-.43-1.054-1.075s.421-1.075 1.054-1.075h7.377V24.72H1.069c-.633 0-1.054-.43-1.054-1.074 0-.645.421-1.075 1.054-1.075h8.43c.633 0 1.054.43 1.054 1.075v5.374c0 .645-.421 1.075-1.054 1.075zm67.446 0h-8.43c-.633 0-1.055-.43-1.055-1.075v-5.374c0-.645.422-1.075 1.054-1.075h8.431c.633 0 1.054.43 1.054 1.075s-.421 1.074-1.054 1.074H69.57v3.225h7.377c.633 0 1.054.43 1.054 1.075s-.421 1.075-1.054 1.075zM39.007 18.273c-15.491 0-25.608-9.566-26.03-9.996a1.053 1.053 0 0 1 0-1.505 1.005 1.005 0 0 1 1.476 0c.105.108 9.906 9.351 24.554 9.351 14.649 0 24.45-9.243 24.555-9.35a1.005 1.005 0 0 1 1.476 0c.421.43.421 1.074 0 1.504-.422.43-10.539 9.996-26.03 9.996z" fill="#20201D"/><path d="M1.068 24.721c-.21 0-.526-.107-.737-.322a1.168 1.168 0 0 1-.106-1.505c.106-.107 8.326-9.458 8.115-15.37 0-.644.422-1.074 1.054-1.074.632 0 1.054.43 1.054 1.075.105 6.77-8.326 16.444-8.747 16.874-.106.215-.316.322-.633.322zm75.878 0c-.316 0-.527-.107-.737-.322-.317-.43-8.853-10.103-8.748-16.874 0-.645.528-1.075 1.054-1.075.633 0 1.054.537 1.054 1.075-.105 5.911 8.115 15.262 8.115 15.37.422.43.316 1.074-.105 1.504-.106.215-.422.322-.633.322zm-37.939 0c-.632 0-1.053-.43-1.053-1.074v-6.45c0-.644.421-1.074 1.053-1.074.633 0 1.054.43 1.054 1.075v6.449c0 .645-.421 1.074-1.054 1.074zm8.431 0c-.632 0-1.054-.43-1.054-1.074v-6.45c0-.644.422-1.074 1.054-1.074.632 0 1.054.43 1.054 1.075v6.449c0 .645-.422 1.074-1.054 1.074zm8.432 0c-.633 0-1.055-.43-1.055-1.075v-9.673c0-.645.422-1.075 1.054-1.075.632 0 1.054.43 1.054 1.075v9.673c0 .645-.422 1.075-1.054 1.075zm-25.293 0c-.633 0-1.054-.43-1.054-1.074v-6.45c0-.644.421-1.074 1.054-1.074.632 0 1.053.43 1.053 1.075v6.449c0 .645-.421 1.074-1.053 1.074zm-8.431 0c-.633 0-1.054-.43-1.054-1.075v-9.673c0-.645.421-1.075 1.054-1.075.632 0 1.053.43 1.053 1.075v9.673c0 .645-.421 1.075-1.053 1.075z" fill="#20201D"/><path d="M25.834 45.573c-1.897 0-3.794-.645-5.48-1.827l-.316-.215c-2.424-1.827-5.902-1.827-8.326 0l-.316.215c-3.161 2.472-7.693 2.472-10.855 0-.421-.323-.526-1.075-.21-1.505.316-.43 1.054-.537 1.475-.215 2.424 1.827 5.902 1.827 8.326 0l.316-.215c3.161-2.472 7.693-2.472 10.854 0l.317.215c2.423 1.827 5.901 1.827 8.325 0l.316-.215c2.635-2.042 6.113-2.364 9.063-1.075.316.215.738.323 1.054.538.527.322.633.967.316 1.505-.316.537-.948.644-1.475.322-.21-.215-.527-.322-.843-.43-2.319-1.075-4.953-.752-6.956.86l-.316.215c-1.475 1.29-3.372 1.827-5.269 1.827z" fill="#529BEF"/><path d="M72.52 46.863c-1.897 0-3.794-.645-5.48-1.827l-.633-.43c-2.423-1.827-5.901-1.827-8.325 0l-.316.215c-3.162 2.472-7.693 2.472-10.855 0l-.316-.215c-1.16-.86-2.53-1.397-4.005-1.397-1.159 0-2.318.215-3.372.752-.316.215-.738.43-1.054.645l-.316.215c-.422.322-1.16.215-1.475-.215-.317-.43-.211-1.182.21-1.505l.317-.215c.421-.322.843-.645 1.264-.86 1.37-.752 2.846-1.074 4.32-.967 1.898 0 3.69.645 5.165 1.827l.316.215c2.424 1.827 5.902 1.827 8.325 0l.317-.215c3.161-2.472 7.693-2.472 10.854 0l.633.43c2.318 1.827 5.585 1.935 8.009.215.527-.322 1.16-.215 1.475.322.316.538.211 1.183-.316 1.505-1.264 1.075-2.95 1.505-4.742 1.505zm-42.47 9.029c-1.687 0-3.478-.538-4.848-1.613l-.316-.215c-2.108-1.612-5.059-1.612-7.272 0-.422.323-1.16.215-1.476-.215-.316-.43-.21-1.182.211-1.505 2.846-2.15 6.85-2.15 9.801 0l.316.215c2.108 1.613 5.059 1.613 7.272 0l.316-.215c2.846-2.15 6.85-2.15 9.801 0l.316.215c2.108 1.613 5.059 1.613 7.272 0l.527-.43c2.74-2.15 6.534-2.257 9.379-.214.527.322.632.967.316 1.504-.316.538-.948.645-1.475.323-2.108-1.398-4.953-1.398-6.956.215l-.527.43c-2.845 2.15-6.85 2.15-9.8 0l-.317-.215c-2.107-1.612-5.058-1.612-7.271 0l-.316.215c-1.476.967-3.162 1.505-4.954 1.505z" fill="#529BEF"/></svg>