<svg width="79" height="59" fill="none" xmlns="http://www.w3.org/2000/svg"><path d="M77.88 58.775L.79 19.006c-.188-.125-.314-.314-.314-.502V.564C.476.252.727 0 1.041 0h56.14c.25 0 .44.125.502.376l20.95 57.771c.189.44-.313.879-.752.628z" fill="#fff"/><path d="M57.181.376c.063 0 .126.063.126.063l20.95 57.771v.126c0 .062-.063.062-.125.062h-.063L.979 18.692c-.063 0-.063-.062-.063-.125V.565c0-.063.062-.126.125-.126h56.14V.376zm0-.376H1.041a.562.562 0 0 0-.565.565v18.002c0 .188.126.376.314.502l77.09 39.768c.063.063.189.063.252.063.376 0 .69-.376.501-.753L57.683.377C57.62.124 57.369 0 57.18 0z" fill="#529BEF"/><path d="M58.373 14.74L78.57 58.085c.188.44-.251.941-.69.753L14.527 35.754c-.25-.063-.376-.314-.376-.502v-20.26c0-.314.25-.565.564-.565h43.219c.188 0 .376.126.439.314zM5.62 7.464c0-.188-.063-.313-.188-.376-.126-.125-.314-.125-.502-.125a.907.907 0 0 0-.44.125c-.125.126-.187.188-.187.376h-.628c0-.188.063-.376.189-.501.125-.126.25-.251.439-.377.188-.062.376-.125.627-.125.44 0 .753.063.94.25.252.189.315.44.315.753 0 .189-.063.314-.126.44-.125.125-.25.25-.439.313.188.063.376.188.44.314a.712.712 0 0 1 .187.502.894.894 0 0 1-.376.752c-.251.188-.565.314-1.004.314a2.25 2.25 0 0 1-.69-.126c-.188-.062-.376-.188-.439-.376-.125-.125-.125-.313-.125-.564h.627c0 .125.063.313.188.376.126.063.314.188.502.188.25 0 .376-.063.502-.125.125-.126.188-.251.188-.377 0-.188-.063-.376-.188-.439a1.182 1.182 0 0 0-.502-.125h-.44v-.502h.377c.502-.063.753-.25.753-.565zm4.579 3.45h-.565v-.878H7.251v.878h-.627v-1.38h.313c.126-.125.251-.313.314-.627.063-.25.125-.564.188-.878l.063-1.568H9.76v3.073h.439v1.38zm-2.572-1.38h1.568V6.963H8.13l-.063 1.003c-.062.69-.188 1.192-.439 1.568zm3.701-.815v1.317h-.627V6.461h1.38c.376 0 .69.125.94.313.252.189.377.502.377.816 0 .376-.125.627-.376.815a1.54 1.54 0 0 1-.941.314h-.753zm0-.502h.753c.25 0 .376-.063.502-.125a.57.57 0 0 0 .188-.44c0-.188-.063-.376-.189-.438-.125-.126-.25-.189-.501-.189h-.753v1.192zm4.391 1.003h-1.38l-.314.816h-.627l1.38-3.575h.564l1.38 3.575h-.627l-.376-.815zm-1.255-.501h1.067l-.502-1.505-.565 1.505zm2.635 1.317V6.461h1.254c.377 0 .69.063.941.25a.94.94 0 0 1 .314.753.907.907 0 0 1-.125.44.643.643 0 0 1-.377.313c.188.063.314.126.44.314a.712.712 0 0 1 .187.502c0 .313-.125.564-.313.752-.188.188-.502.251-.941.251h-1.38zm.627-2.07h.627c.189 0 .377-.062.44-.125.125-.063.188-.188.188-.377 0-.188-.063-.313-.126-.376a.971.971 0 0 0-.502-.125h-.627v1.003zm0 .44v1.128h.69c.188 0 .377-.062.44-.125.125-.126.187-.251.187-.376 0-.377-.188-.565-.564-.565h-.753v-.063zm5.394-.063c0 .376-.062.69-.188.94-.125.251-.313.44-.501.628a1.67 1.67 0 0 1-.753.188c-.314 0-.565-.063-.753-.188-.25-.126-.376-.314-.502-.627a2.004 2.004 0 0 1-.188-.879v-.188c0-.376.063-.627.188-.94.126-.252.314-.503.502-.628a1.67 1.67 0 0 1 .753-.188c.313 0 .564.063.753.188.25.125.376.314.501.627.126.251.189.565.189.941v.126zm-.627-.189c0-.376-.062-.69-.25-.94a.772.772 0 0 0-.628-.314c-.25 0-.502.125-.627.314a1.616 1.616 0 0 0-.251.878v.188c0 .376.063.69.25.94.126.189.377.314.628.314s.502-.125.627-.313c.126-.188.251-.502.251-.941v-.126zm4.14.189c0 .376-.063.69-.188.94-.125.251-.314.44-.502.628a1.67 1.67 0 0 1-.753.188c-.313 0-.564-.063-.752-.188-.251-.126-.377-.314-.502-.627a2.003 2.003 0 0 1-.188-.879v-.188c0-.376.063-.627.188-.94.125-.252.314-.503.502-.628a1.67 1.67 0 0 1 .753-.188c.313 0 .564.063.752.188.251.125.377.314.502.627.125.251.188.565.188.941v.126zm-.627-.189c0-.376-.063-.69-.251-.94-.125-.189-.376-.314-.627-.314a.772.772 0 0 0-.628.314c-.125.188-.25.501-.25.878v.188c0 .376.062.69.25.94a.772.772 0 0 0 .628.314c.25 0 .502-.125.627-.313.126-.188.251-.502.251-.941v-.126zm2.258-.376l.753-1.317h.69L28.64 8.217l1.13 1.82h-.753l-.753-1.318-.753 1.317h-.752l1.129-1.819-1.067-1.756h.69l.753 1.317zm2.635.941v1.317h-.628V6.461h1.38c.377 0 .69.125.941.313.251.189.377.502.377.816 0 .376-.126.627-.377.815a1.54 1.54 0 0 1-.94.314h-.753zm0-.502h.752c.251 0 .377-.063.502-.125a.57.57 0 0 0 .188-.44c0-.188-.062-.376-.188-.438-.125-.126-.25-.189-.502-.189H30.9v1.192zm4.328 1.003h-1.38l-.314.816h-.627l1.38-3.575h.564l1.38 3.575h-.627l-.376-.815zm-1.192-.501h1.066l-.564-1.505-.502 1.505zm5.457 1.317h-.627V8.468h-1.631v1.568h-.627V6.461h.627v1.505h1.63V6.461h.628v3.575zm2.823-1.568h-1.443v1.13h1.694v.501h-2.321V6.524h2.32v.501h-1.693V8.03h1.443v.44zm3.638 1.568h-.627V8.468h-1.631v1.568h-.627V6.461h.627v1.505h1.63V6.461h.628v3.575zm2.885-3.576h.628v3.576h-.628V7.464l-1.568 2.572h-.627V6.461h.627v2.572l1.568-2.572zm3.45 2.008h-1.442v1.13h1.693v.501h-2.32V6.524h2.32v.501h-1.693V8.03h1.442v.44z" fill="#529BEF"/><path d="M17.475 18.065h-1.003v-2.384h-.879v5.583h.879v-2.383h1.003v2.383h.878v-5.582h-.878v2.383zm11.605 3.2V15.68h-.941l-.753 2.259-.314 1.254v-3.512h-.752v5.582h.878l.753-2.572.313-1.38v3.952h.816zm-4.266.69h.878v-1.506h-.376V15.68h-.878v4.768h-1.004V15.68h-.878v5.583h2.32v.69h-.062zm-5.018-6.273l-.878 5.582h.815l.126-1.003h1.066l.126 1.003h.94l-.878-5.582h-1.317zm.188 3.763l.44-2.823.439 2.823h-.879zm25.09-1.694h-.438v-2.07h-.878v5.583h1.317c.878 0 1.317-.502 1.317-1.38v-.753c-.063-.878-.439-1.38-1.317-1.38zm.44 2.133c0 .377-.126.502-.44.502h-.438v-1.882h.439c.25 0 .439.126.439.502v.878zm6.21-2.133h-.44v-2.07h-.877v5.583h1.317c.878 0 1.317-.502 1.317-1.38v-.753c0-.878-.439-1.38-1.317-1.38zm.439 2.133c0 .377-.126.502-.44.502h-.438v-1.882h.439c.25 0 .439.126.439.502v.878zm1.38 1.38h.878v-5.582h-.878v5.582zm3.952-4.83v-.815H55.11V21.2h2.384v-.752h-1.506v-1.631h1.192v-.816h-1.192v-1.568h1.506zm-8.657 1.631h-1.003v-2.384h-.878v5.583h.878v-2.383h1.003v2.383h.879v-5.582h-.879v2.383zm-11.604-2.384l-.878 5.583h.815l.126-1.003h1.066l.126 1.003h.878l-.878-5.582h-1.255zm.188 3.764l.44-2.823.438 2.823h-.878zm-1.63 1.82V15.68h-.879v2.384H33.91V15.68h-.879v5.583h.879V18.88h1.003v2.383h.878zm-4.768.062c.878 0 1.317-.502 1.317-1.38V17.06c0-.878-.439-1.38-1.317-1.38-.878 0-1.317.502-1.317 1.38v2.886c0 .815.502 1.38 1.317 1.38zm-.439-4.391c0-.376.188-.564.44-.564.25 0 .438.125.438.564v3.01c0 .377-.188.565-.439.565-.25 0-.439-.125-.439-.564v-3.011zm9.848 2.948c0 .502-.125.565-.565.565v.815h.126c.878 0 1.255-.376 1.255-1.443l.125-3.387h.753v4.767h.878V15.62h-2.447l-.125 4.265zm-20.072 2.447h-1.318v5.582h.879v-2.07h.439c.878 0 1.317-.502 1.317-1.38v-.753c0-.878-.44-1.38-1.317-1.38zm.439 2.195c0 .376-.126.502-.44.502h-.438v-1.882h.439c.25 0 .439.125.439.502v.878zm-5.207 3.387h.879v-4.767h1.003v4.767h.878v-5.582h-2.76v5.582zm20.826-3.45h-.44V22.33h-.815v5.583h1.255c.878 0 1.317-.502 1.317-1.38v-.753c0-.878-.44-1.317-1.317-1.317zm.439 2.133c0 .376-.126.502-.44.502h-.438v-1.882h.439c.25 0 .439.125.439.502v.878zm-11.354 1.317h2.384v-.815h-1.506v-1.631h1.192v-.816h-1.192v-1.568h1.506v-.752h-2.384v5.582zm7.276 0h.879v-4.767h.94v-.816h-2.697v.816h.941v4.767h-.063zm5.458 0h.878v-5.582h-.878v5.582zm-7.653-5.582l-1.129 2.446V22.33h-.878v5.583h.878V26.22l.25-.501.879 2.195h.878L30.21 24.84l1.192-2.51h-.816zm-7.025-.063c-.878 0-1.318.502-1.318 1.38v2.885c0 .878.44 1.38 1.318 1.38.878 0 1.317-.502 1.317-1.38v-2.885c0-.878-.502-1.38-1.317-1.38zm.439 4.39c0 .377-.188.565-.44.565-.25 0-.438-.125-.438-.564v-3.011c0-.377.188-.565.439-.565.25 0 .439.126.439.565v3.01zm9.032 4.705l-.313 1.255v-3.513h-.753v5.583h.878l.753-2.572.376-1.38v3.952h.816v-5.583h-.941l-.816 2.258zm-3.512 0l-.314 1.255v-3.513h-.753v5.583h.878l.753-2.572.377-1.38v3.952h.815v-5.583h-.94l-.816 2.258zm-6.21-2.383c-.878 0-1.318.501-1.318 1.38v2.885c0 .878.44 1.38 1.318 1.38.878 0 1.317-.502 1.317-1.38v-.753h-.815v.816c0 .376-.189.564-.44.564-.25 0-.439-.125-.439-.564v-3.011c0-.377.189-.565.44-.565.25 0 .439.126.439.565v.627h.815v-.564c0-.879-.44-1.38-1.317-1.38zm3.199 0c-.878 0-1.317.501-1.317 1.38v2.885c0 .878.439 1.38 1.317 1.38.878 0 1.317-.502 1.317-1.38v-.753h-.815v.816c0 .376-.189.564-.44.564-.25 0-.439-.125-.439-.564v-3.011c0-.377.189-.565.44-.565.25 0 .439.126.439.565v.627h.815v-.564c0-.879-.439-1.38-1.317-1.38zm-6.461 0c-.878 0-1.317.501-1.317 1.38v2.885c0 .878.439 1.38 1.317 1.38.878 0 1.317-.502 1.317-1.38V30.36c.063-.879-.439-1.38-1.317-1.38zm.502 4.328c0 .376-.188.564-.44.564-.25 0-.438-.125-.438-.564v-3.011c0-.377.188-.565.439-.565.25 0 .439.126.439.565v3.01zm-3.638-4.266h-1.318v5.583h.879v-2.07h.439c.878 0 1.317-.502 1.317-1.38v-.753c0-.878-.44-1.38-1.317-1.38zm.439 2.133c0 .376-.126.502-.44.502h-.438v-1.882h.439c.25 0 .439.125.439.502v.878z" fill="#fff"/></svg>