<svg width="74" height="74" fill="none" xmlns="http://www.w3.org/2000/svg"><path d="M34.255 61.705c.436.109.894.218 1.35.306a13.57 13.57 0 0 1-1.35-.306zm1.413.305c-.02.023-.02.023 0 0-.02.023-.041.023-.062 0 .02 0 .041.023.062 0z" fill="#529BEF"/><path fill-rule="evenodd" clip-rule="evenodd" d="M35.336 64.418s.54 1.137 1.683.918c1.495-.328 4.155-1.356 4.155-1.356s-1.58-2.604.311-9.101c1.891-6.498 14.73-13.959 14.71-16.387-.042-2.407-6.358-.503-10.45 1.444-4.093 1.947-10.95.569-11.136-5.907-.188-6.476 2.7-15.687 1.6-16.168-1.102-.482-4.052 4.463-5.777 20.368-1.745 15.928 4.904 26.189 4.904 26.189zm14.044-33.3c-.062 3.523-2.825 6.324-6.17 6.258-3.345-.066-6.005-2.975-5.942-6.498.062-3.522 2.825-6.323 6.17-6.257 3.345.066 6.005 2.976 5.942 6.498z" fill="#529BEF"/><path fill-rule="evenodd" clip-rule="evenodd" d="M70.136 39.739c-1.496-6.782-.104-8.664-.104-8.664-3.74-.284-4.322 3.829-3.906 6.585.852 5.601 0 9.014-.062 9.211.374-2.822-.187-6.235-.852-8.423-.914-2.997-.063-5.36-.063-5.36s-4.612.197-2.991 7.132c1.786 7.592.062 10.655-.063 10.83.644-2.538.437-4.748-.727-8.905-.893-3.15-.52-5.425-.52-5.425-2.659 1.29-3.344 3.347-2.243 8.138.29 1.27.457 2.385.54 3.348.042.043.104.065.146.11 3.24 2.559 3.885 7.416 1.454 10.829-1.641 2.275-4.197 3.435-6.71 3.128-.042 0-1.019-.153-1.621-.372-.665-.24-1.247-.612-1.247-.612s-.083-5.973-3.407-8.708a5.98 5.98 0 0 0-1.62-.722c3.635 12.974-8.207 20.456-19.593 19.428 1.372.985 19.01 7.876 34.551-5.054 6.42-7.285 11.053-17.305 9.038-26.494z" fill="#529BEF"/><path fill-rule="evenodd" clip-rule="evenodd" d="M58.418 47.702a42.464 42.464 0 0 0-.499-1.99c-.851-3.15-.56-5.295-.56-5.295s-2.452.416-1.787 6.345a7.09 7.09 0 0 1 2.846.94z" fill="#529BEF"/><path d="M54.242 49.671c-.062.044-.083.088-.062.11.02.021.062 0 .124-.022.063-.044.083-.088.063-.11-.021-.043-.084-.022-.125.022z" fill="#529BEF"/><path d="M58.626 49.234c-2.743-2.188-6.67-1.598-8.726 1.29a6.647 6.647 0 0 0-.873 1.663c.686.678 2.888 3.216 3.179 8.226 2.618 1.291 5.817.547 7.645-1.99 2.078-2.888 1.517-7.023-1.225-9.19zm-4.156 1.728c-.249.044-.187-.328-.187-.328-.207-.022-.498.416-.498.416-.166-.394 1.039-.897 1.039-.897l-.042.065c-.665.438-.312.744-.312.744zm-2.721.678h5.65a.92.92 0 0 1-.061.328c-.208.504-.915.897-1.829 1.05a.963.963 0 0 1-.56.591v.503a.86.86 0 0 0-.105.044c-.228.088-.436.197-.644.306v-.875a.963.963 0 0 1-.56-.59c-1.102-.175-1.891-.722-1.891-1.357zm.935 8.533c0-.328.581-.613 1.392-.678a.34.34 0 0 1 .124-.175c.104-.022.208-.022.333-.044.145-.022.29-.044.415-.088v.131a.34.34 0 0 1 .125.175c.81.088 1.392.35 1.392.679h-3.781zm1.807-1.094s.208-.044.457-.175c.063-.022.104-.066.166-.088.416-.262.645-.59.665-.984 0-.022.042-.482-.768-.897v-.503c.54.218.872.503 1.038.875.167.393.042.722.042.744 0 0-.083.262-.312.546a1.68 1.68 0 0 1-.83.547c-.125.044-.27.066-.437.088a1.527 1.527 0 0 1-.312.044c-.124.022-.228.022-.311.022-.104 0-.125-.022-.125-.022.02-.022.166-.088.436-.153.083-.022.187-.044.291-.044zm-.29 0v-3.697c.186-.088.415-.176.602-.241.041-.022.104-.022.145-.044v3.719a1.913 1.913 0 0 1-.457.175c-.104.044-.208.066-.29.088zm4.28-7.11c-.167.524-.52 1.268-1.289 1.815-.02 0-1.08.854-2.244 1.27-.062.021-.104.043-.166.065 0 0-.27.087-.56.219 0 0-.022 0-.022.022-.54.24-.54.35-.54.393 0 .044.042.088.104.11l.395.175v.569c-.457-.11-.81-.263-1.039-.416-.187-.131-.29-.263-.312-.416-.041-.35.416-.656.437-.656 0 0 .436-.285.997-.59.208-.11.436-.22.665-.329 0 0 .02-.022.083-.044a7.27 7.27 0 0 0 1.226-.744c.374-.284.685-.59.914-.897.29-.371.457-.765.478-1.16 0 0 .083-.787-.374-1.334-.25-.306-.624-.481-1.102-.503-.02 0-.477 0-.602.11-.312.568-.52.678-.52.678-.02.022-.02.022-.04.022-.042-.044-.022-.307 0-.46l.02-.131-.063.11c-.103.196-.373.327-.373.327s-.333.154-.52.154c-.062 0-.104-.022-.124-.044 0-.022-.188-.569.872-1.335 0 0 .665-.416 1.475-.416.25 0 .478.044.707.11 0 0 .436.153.872.481.395.307.852.875.852 1.729-.041.109-.041.547-.208 1.115zm-36.027 8.663l.125-.46c.166-.678.187-.874.187-.896 0-.329.166-.635.457-.788a.781.781 0 0 1 .374-.087c.187 0 .374.065.52.196l.186.154.561.459.021.022c.146.131.312.372.312.766 0 .197 0 .393-.02.612l-.043 1.554c0 .218-.02.437-.02.678 2.7 1.86 5.962 3.106 9.91 3.282l-.686-.941s-6.17-8.555-6.752-20.26c-.582-11.704 3.678-21.746 2.888-22.293-.79-.525-4.321 4.572-5.9 14.242-1.58 9.67-7.521 3.5-9.121 1.75-2.66-2.865-1.995 13.193 7.001 22.01z" fill="#529BEF"/><path d="M20.044 39.082c2.203-.131 3.906-2.1 3.782-4.42-.125-2.319-1.995-4.113-4.197-3.981-2.202.13-3.906 2.1-3.781 4.419.124 2.32 1.994 4.113 4.196 3.982zm2.701 30.258c.021 0 .042-.022.063-.022.041 0 .062.022.104.044.477.415.955.831 1.433 1.225.54.438 1.101.787 1.787.919.145.022.311.043.457.043h.083c.145 0 .229-.043.27-.13a.391.391 0 0 0 0-.22 2.35 2.35 0 0 0-.229-.678 3.37 3.37 0 0 0-.893-1.203c-.56-.503-1.143-.985-1.724-1.488-.063-.043-.083-.11-.083-.197.02-.46.062-.897.083-1.356v-.044c.104.088.228.153.332.24.063.045.125.088.187.088.063 0 .146-.043.229-.131.083-.088.166-.197.228-.306.104-.175-.02-.285-.124-.394-.042-.022-.063-.066-.104-.088-.042-.043-.083-.087-.146-.109l-.56-.481c.04-1.488.103-2.976.145-4.463 0-.197 0-.394.02-.591 0-.044 0-.088-.02-.11-.25-.218-.478-.415-.728-.612 0 .175-.083.59-.228 1.137-.457 1.816-1.496 4.989-1.662 5.36-.042-.043-2.12-1.684-2.43-1.925-.063-.043-.063-.087-.063-.153.062-1.05.104-2.078.166-3.128a.289.289 0 0 0-.083-.22 12.438 12.438 0 0 1-.54-.459c-.063.504-.27.963-.437 1.4-.166.482-.457 1.226-.644 1.707l-.581-.415-.457.721.415.482c-.145.11-.499.372-.644.481-.56.394-1.122.788-1.683 1.16a.985.985 0 0 1-.145.065l-.063.175c.042.022.063.066.104.088.104.087.229.197.333.262a.282.282 0 0 0 .124.044h.063c.935-.284 1.87-.547 2.825-.853.042-.022.063-.022.104-.022.062 0 .104.022.166.087.603.547 1.725 1.554 2.12 1.926.083.065.124.131.145.131-.353.306-4.53 2.888-5.443 3.282-.104.044-.167.044-.167.044a.27.27 0 0 0 .042.065c.208.175.415.372.644.525.02.022.083.044.125.044h.062c1.122-.306 2.223-.613 3.324-.897.416-.11.852-.24 1.267-.35l.561.46c.042.043.084.087.125.109.062.065.145.11.229.153.02.022.083.044.145.044a.219.219 0 0 0 .146-.066c.083-.087.166-.197.249-.306.125-.175.062-.306-.042-.416-.104-.11-.207-.197-.311-.306.249-.066.498-.153.747-.219.23-.044.416-.087.582-.153z" fill="#529BEF"/><path d="M65.087 20.924c-12.362-13.127-32.494-13.215-44.96-.197C10.26 31.053 8.16 46.499 13.853 58.99 6.021 45.734 7.62 28.079 18.59 16.614 31.347 3.29 51.936 3.377 64.588 16.81c6.046 6.433 9.184 14.746 9.412 23.126-.893-6.958-3.864-13.674-8.913-19.012z" fill="#529BEF"/><path d="M13.666 59.779S6.062 49.365 7.724 34.707C9.677 17.4 24.18 9.306 27.067 8.037c2.742-1.203 12.05-5.229 22.126-2.188 11.303 3.435 17.64 12.077 17.64 12.077S55.986-.758 33.922 2.436C13.77 5.346 6.29 23.9 5.5 33.591c-.769 9.582 1.62 18.946 8.165 26.188z" fill="#529BEF"/><path d="M16.242 62.951s-8.248-4.375-11.78-18.027c-3.532-13.652 1.31-25.27 6.005-31.592C15.162 7.009 22.766 1.189 36.603.052c0 0-22.064-1.838-32.14 16.43-9.06 16.409-3.927 36.777 11.78 46.47z" fill="#529BEF"/></svg>