<svg width="14" height="19" fill="none" xmlns="http://www.w3.org/2000/svg"><g clip-path="url(#clip0)"><path d="M6.504 18.581c-.372-.442-.65-.885-.93-1.327-1.393-2.035-2.787-4.159-3.902-6.282C1.115 9.91.557 8.848.28 7.698c-.466-1.505-.28-2.92.37-4.16C1.672 1.593 3.252.532 5.482.089c3.437-.62 6.875 1.77 7.525 5.044.186 1.061 0 2.035-.371 3.008-.558 1.593-1.394 3.185-2.323 4.69a94.602 94.602 0 0 1-3.624 5.574c-.093 0-.093.089-.185.177zm0-1.416c0-.088.092-.088.092-.088a92.817 92.817 0 0 0 3.252-4.955A30.757 30.757 0 0 0 11.8 8.229c.372-.974.558-1.947.372-2.92-.557-2.301-2.044-3.805-4.46-4.248-2.415-.619-4.366.177-5.853 2.036C.836 4.512.465 6.017 1.115 7.609c.279.797.65 1.593 1.022 2.39 1.115 2.211 2.416 4.335 3.81 6.37.185.265.37.531.557.796z" fill="#000"/><path d="M6.596 7.61c1.13 0 2.044-.872 2.044-1.947 0-1.075-.915-1.947-2.044-1.947-1.128 0-2.044.872-2.044 1.947 0 1.075.916 1.947 2.044 1.947z" fill="#fff" stroke="#000" stroke-miterlimit="10"/></g><defs><clipPath id="clip0"><path fill="#fff" d="M0 0h13.1v18.582H0z"/></clipPath></defs></svg>